{"accessors":[{"bufferView":0,"byteOffset":0,"componentType":5126,"count":264,"max":[43,8.50000095367432,-0.68333053588867],"min":[-43,-2.00000143051147,-34.2500038146973],"normalized":false,"type":"VEC3"},{"bufferView":1,"byteOffset":0,"componentType":5126,"count":264,"max":[1,0.0000640458601992577,1,1],"min":[-1,-0.00002134826354,-1,-1],"normalized":false,"type":"VEC4"},{"bufferView":2,"byteOffset":0,"componentType":5126,"count":264,"max":[1,1,1],"min":[-1,-1,-0.97317826747894],"normalized":false,"type":"VEC3"},{"bufferView":3,"byteOffset":0,"componentType":5126,"count":264,"max":[2.14062523841858,1.34375],"min":[-2.14062523841858,-0.56250005960464],"normalized":false,"type":"VEC2"},{"bufferView":4,"byteOffset":0,"componentType":5123,"count":408,"max":[263],"min":[0],"normalized":false,"type":"SCALAR"}],"asset":{"generator":"Godot Engine v4.3.stable.official@77dcf97d82cbfe4e4615475fa52ca03da645dbd8","version":"2.0"},"bufferViews":[{"buffer":0,"byteLength":3168,"byteOffset":0,"byteStride":12,"target":34962},{"buffer":0,"byteLength":4224,"byteOffset":3168,"byteStride":16,"target":34962},{"buffer":0,"byteLength":3168,"byteOffset":7392,"byteStride":12,"target":34962},{"buffer":0,"byteLength":2112,"byteOffset":10560,"byteStride":8,"target":34962},{"buffer":0,"byteLength":816,"byteOffset":12672,"target":34963}],"buffers":[{"byteLength":13488,"uri":"FlyableNavigationMesh0.bin"}],"extensionsUsed":["GODOT_single_root"],"images":[{"uri":"textures%2F_albedo000.png"}],"materials":[{"extensions":{},"pbrMetallicRoughness":{"baseColorFactor":[0.99999988079071,0.99999988079071,0.99999988079071,1],"baseColorTexture":{"index":0},"metallicFactor":0,"roughnessFactor":1}}],"meshes":[{"extras":{"targetNames":[]},"primitives":[{"attributes":{"NORMAL":2,"POSITION":0,"TANGENT":1,"TEXCOORD_0":3},"indices":4,"material":0,"mode":4}]}],"nodes":[{"mesh":0,"name":"FlyingNavMesh"}],"samplers":[{"magFilter":9728,"minFilter":9986,"wrapS":10497,"wrapT":10497}],"scene":0,"scenes":[{"nodes":[0]}],"textures":[{"sampler":0,"source":0}]}