mtllib test_boss_core.mtl
# vertices
v 1056 560 -240
v 656 560 -640
v 656 16 -640
v 1056 16 -240
v 1056 16 -640
v 1056 560 -640
v -368 16 -672
v -368 16 -640
v -368 560 -640
v -368 560 -672
v 1056 560 -640
v 1056 16 -640
v 1056 16 -672
v 1056 560 -672
v -400 16 -640
v -400 16 592
v -400 560 592
v -400 560 -640
v -368 560 592
v -368 16 592
v -368 16 -640
v -368 560 -640
v -368 16 192
v -368 16 592
v -368 560 592
v -368 560 192
v 32 560 592
v 32 16 592
v 1056 16 192
v 656 16 592
v 656 560 592
v 1056 560 192
v 1056 560 592
v 1056 16 592
v -368 16 592
v -368 16 624
v -368 560 624
v -368 560 592
v 1056 560 624
v 1056 16 624
v 1056 16 592
v 1056 560 592
v -368 560 -240
v -368 560 -640
v -368 16 -640
v -368 16 -240
v 32 16 -640
v 32 560 -640
v 1056 16 -640
v 1056 16 592
v 1056 560 592
v 1056 560 -640
v 1088 560 592
v 1088 16 592
v 1088 16 -640
v 1088 560 -640
v -368 16 -240
v -368 -16 -240
v -368 -16 192
v -368 16 192
v 32 -16 592
v 32 16 592
v 32 -16 -640
v 32 16 -640
v 656 16 592
v 656 -16 592
v 1056 -16 192
v 656 -16 -640
v 1056 -16 -240
v 1056 16 -240
v 656 16 -640
v 1056 16 192

# texture coordinates
vt 1.1130316 0.546875
vt 0.008177226 0.546875
vt 0.008177226 0.015625
vt 1.1130316 0.015625
vt -0.46875 -1.046875
vt -1.25 -0.65625
vt -1.25 -1.046875
vt 1.25 -1.046875
vt 1.25 -0.65625
vt 0.46875 -1.046875
vt -2.078125 0.015625
vt -1.296875 0.015625
vt -1.296875 0.546875
vt -2.078125 0.546875
vt 0.46875 0.546875
vt 0.46875 0.015625
vt 1.25 0.015625
vt 1.25 0.546875
vt -1.3125 0.015625
vt -1.25 0.015625
vt -1.25 0.546875
vt -1.3125 0.546875
vt 2.0625 0.546875
vt -0.71875 0.546875
vt -0.71875 0.015625
vt 2.0625 0.015625
vt -2.0625 0.625
vt 0.71875 0.625
vt 0.71875 0.65625
vt -2.0625 0.65625
vt 2.0625 0.65625
vt -0.71875 0.65625
vt -0.71875 0.625
vt 2.0625 0.625
vt -2.0625 0.015625
vt 0.71875 0.015625
vt 0.71875 0.546875
vt -2.0625 0.546875
vt 1.3125 0.546875
vt 1.3125 0.015625
vt 1.15625 0.015625
vt 1.15625 0.546875
vt -0.734375 0.546875
vt -0.796875 0.546875
vt -0.796875 0.015625
vt -0.734375 0.015625
vt 0.734375 -0.578125
vt 0.796875 -0.578125
vt 0.796875 0.625
vt 0.734375 0.625
vt -0.734375 0.625
vt -0.796875 0.625
vt -0.796875 -0.578125
vt -0.734375 -0.578125
vt 0.734375 0.015625
vt 0.796875 0.015625
vt 0.796875 0.546875
vt 0.734375 0.546875
vt -1.15625 0.546875
vt -1.15625 0.015625
vt 0.359375 0.015625
vt 1.140625 0.015625
vt 1.140625 0.546875
vt 0.359375 0.546875
vt 0.0625 0.546875
vt 0.0625 0.015625
vt -1.140625 0.03125
vt -1.140625 -0.359375
vt -0.359375 -0.359375
vt 0.359375 -0.359375
vt 1.140625 -0.359375
vt 1.140625 0.03125
vt -0.87126446 0.015625
vt 0.23358984 0.015625
vt 0.23358984 0.546875
vt -0.87126446 0.546875
vt -1.1932427 0.015625
vt -0.088388346 0.015625
vt -0.088388346 0.546875
vt -1.1932427 0.546875
vt 1.28125 0.546875
vt 1.28125 0.015625
vt -2.0625 -0.578125
vt -1.28125 -0.578125
vt -2.0625 -0.1875
vt 2.0625 -0.1875
vt 1.28125 -0.578125
vt 2.0625 -0.578125
vt -0.375 0.015625
vt -0.375 0.546875
vt 1.171875 0.015625
vt 1.234375 0.015625
vt 1.234375 0.546875
vt 1.171875 0.546875
vt -2.0625 -0.625
vt 0.71875 -0.625
vt 0.71875 -0.59375
vt -2.0625 -0.59375
vt 2.0625 -0.59375
vt -0.71875 -0.59375
vt -0.71875 -0.625
vt 2.0625 -0.625
vt -1.171875 0.546875
vt -1.234375 0.546875
vt -1.234375 0.015625
vt -1.171875 0.015625
vt -0.484375 0.546875
vt -1.265625 0.546875
vt -1.265625 0.015625
vt -0.484375 0.015625
vt -0.703125 -0.25000003
vt -0.703125 -0.640625
vt 0.078125 -0.640625
vt -0.078125 -0.640625
vt 0.703125 -0.640625
vt 0.703125 -0.25000003
vt -0.078125 0.015625
vt 0.703125 0.015625
vt 0.703125 0.546875
vt -0.078125 0.546875
vt -0.15375967 0.546875
vt -0.15375967 0.015625
vt 0.9510946 0.015625
vt 0.9510946 0.546875
vt 2.125 0.546875
vt 2.125 0.015625
vt -2.125 -0.578125
vt -2.125 0.625
vt 2.125 0.625
vt 2.125 -0.578125
vt -2.125 0.015625
vt -2.125 0.546875
vt -0.46875 0.015625
vt -0.46875 -0.015625
vt 0.375 -0.015625
vt 0.375 0.015625
vt -0.24306795 0.015625
vt -0.24306795 -0.015625
vt 0.86178637 -0.015625
vt 0.86178637 0.015625
vt -0.92807764 -0.015625
vt 0.17677669 -0.015625
vt 0.17677669 0.015625
vt -0.92807764 0.015625
vt 0.0625 -0.015625
vt 1.28125 -0.015625
vt -0.0625 -0.578125
vt 0.71875 -0.1875
vt 0.71875 0.234375
vt -0.0625 0.625
vt -1.28125 0.625
vt -2.0625 0.234375
vt 2.0625 0.234375
vt 1.28125 0.625
vt 0.0625 0.625
vt -0.71875 0.234375
vt -0.71875 -0.1875
vt 0.0625 -0.578125
vt -1.28125 -0.015625
vt -0.0625 -0.015625
vt -0.0625 0.015625
vt -1.28125 0.015625
vt 1.1932427 0.015625
vt 0.088388346 0.015625
vt 0.088388346 -0.015625
vt 1.1932427 -0.015625
vt -1.1269515 -0.015625
vt -0.022097087 -0.015625
vt -0.022097087 0.015625
vt -1.1269515 0.015625
vt -0.375 -0.015625
vt 0.46875 -0.015625

# normals
vn -0.7071067811865475 0 0.7071067811865475
vn 0 -1 -0
vn 0 1 0
vn 0 -0 -1
vn 1 0 -0
vn -1 0 -0
vn 0 0 1
vn 0.7071067811865475 0 -0.7071067811865475
vn -0.7071067811865475 0 -0.7071067811865475
vn 0.7071067811865475 0 0.7071067811865475

o entity3_brush0
usemtl placeholder/texture_dark_08
f  1/1/1  2/2/1  3/3/1  4/4/1
usemtl placeholder/texture_dark_08
f  4/5/2  3/6/2  5/7/2
usemtl placeholder/texture_dark_08
f  6/8/3  2/9/3  1/10/3
usemtl placeholder/texture_dark_08
f  5/11/4  3/12/4  2/13/4  6/14/4
usemtl placeholder/texture_dark_08
f  1/15/5  4/16/5  5/17/5  6/18/5

o entity3_brush1
usemtl placeholder/texture_dark_08
f  7/19/6  8/20/6  9/21/6  10/22/6
usemtl placeholder/texture_dark_08
f  11/23/7  9/24/7  8/25/7  12/26/7
usemtl placeholder/texture_dark_08
f  12/27/2  8/28/2  7/29/2  13/30/2
usemtl placeholder/texture_dark_08
f  14/31/3  10/32/3  9/33/3  11/34/3
usemtl placeholder/texture_dark_08
f  13/35/4  7/36/4  10/37/4  14/38/4
usemtl placeholder/texture_dark_08
f  14/39/5  11/18/5  12/17/5  13/40/5

o entity3_brush2
usemtl placeholder/texture_dark_08
f  15/20/6  16/41/6  17/42/6  18/21/6
usemtl placeholder/texture_dark_08
f  19/43/7  17/44/7  16/45/7  20/46/7
usemtl placeholder/texture_dark_08
f  20/47/2  16/48/2  15/49/2  21/50/2
usemtl placeholder/texture_dark_08
f  22/51/3  18/52/3  17/53/3  19/54/3
usemtl placeholder/texture_dark_08
f  21/55/4  15/56/4  18/57/4  22/58/4
usemtl placeholder/texture_dark_08
f  22/18/5  19/59/5  20/60/5  21/17/5

o entity3_brush3
usemtl placeholder/texture_dark_08
f  23/61/6  24/62/6  25/63/6  26/64/6
usemtl placeholder/texture_dark_08
f  27/65/7  25/24/7  24/25/7  28/66/7
usemtl placeholder/texture_dark_08
f  28/67/2  24/68/2  23/69/2
usemtl placeholder/texture_dark_08
f  26/70/3  25/71/3  27/72/3
usemtl placeholder/texture_dark_08
f  28/73/8  23/74/8  26/75/8  27/76/8

o entity3_brush4
usemtl placeholder/texture_dark_08
f  29/77/9  30/78/9  31/79/9  32/80/9
usemtl placeholder/texture_dark_08
f  33/23/7  31/81/7  30/82/7  34/26/7
usemtl placeholder/texture_dark_08
f  34/83/2  30/84/2  29/85/2
usemtl placeholder/texture_dark_08
f  32/86/3  31/87/3  33/88/3
usemtl placeholder/texture_dark_08
f  34/60/5  29/89/5  32/90/5  33/59/5

o entity3_brush5
usemtl placeholder/texture_dark_08
f  35/91/6  36/92/6  37/93/6  38/94/6
usemtl placeholder/texture_dark_08
f  39/23/7  37/24/7  36/25/7  40/26/7
usemtl placeholder/texture_dark_08
f  40/95/2  36/96/2  35/97/2  41/98/2
usemtl placeholder/texture_dark_08
f  42/99/3  38/100/3  37/101/3  39/102/3
usemtl placeholder/texture_dark_08
f  41/35/4  35/36/4  38/37/4  42/38/4
usemtl placeholder/texture_dark_08
f  42/103/5  39/104/5  40/105/5  41/106/5

o entity3_brush6
usemtl placeholder/texture_dark_08
f  43/107/6  44/108/6  45/109/6  46/110/6
usemtl placeholder/texture_dark_08
f  46/111/2  45/112/2  47/113/2
usemtl placeholder/texture_dark_08
f  48/114/3  44/115/3  43/116/3
usemtl placeholder/texture_dark_08
f  47/117/4  45/118/4  44/119/4  48/120/4
usemtl placeholder/texture_dark_08
f  43/121/10  46/122/10  47/123/10  48/124/10

o entity3_brush7
usemtl placeholder/texture_dark_08
f  49/20/6  50/41/6  51/42/6  52/21/6
usemtl placeholder/texture_dark_08
f  53/125/7  51/23/7  50/26/7  54/126/7
usemtl placeholder/texture_dark_08
f  54/127/2  50/83/2  49/27/2  55/128/2
usemtl placeholder/texture_dark_08
f  56/129/3  52/34/3  51/88/3  53/130/3
usemtl placeholder/texture_dark_08
f  55/131/4  49/35/4  52/38/4  56/132/4
usemtl placeholder/texture_dark_08
f  56/18/5  53/59/5  54/60/5  55/17/5

o entity4_brush0
usemtl placeholder/texture_dark_08
f  57/133/6  58/134/6  59/135/6  60/136/6
usemtl placeholder/texture_dark_08
f  60/137/1  59/138/1  61/139/1  62/140/1
usemtl placeholder/texture_dark_08
f  63/141/9  58/142/9  57/143/9  64/144/9
usemtl placeholder/texture_dark_08
f  65/82/7  62/66/7  61/145/7  66/146/7
usemtl placeholder/texture_dark_08
f  67/85/2  66/84/2  61/147/2  59/148/2  58/149/2  63/150/2  68/151/2  69/152/2
usemtl placeholder/texture_dark_08
f  70/153/3  71/154/3  64/155/3  57/156/3  60/157/3  62/158/3  65/87/3  72/86/3
usemtl placeholder/texture_dark_08
f  68/159/4  63/160/4  64/161/4  71/162/4
usemtl placeholder/texture_dark_08
f  72/163/10  65/164/10  66/165/10  67/166/10
usemtl placeholder/texture_dark_08
f  69/167/8  68/168/8  71/169/8  70/170/8
usemtl placeholder/texture_dark_08
f  72/89/5  67/171/5  69/172/5  70/16/5

