# Blender 5.2.0 LTS
# www.blender.org
mtllib Clouds.mtl
o Sphere
v -0.000626 0.660466 -0.005938
v 0.082799 -0.794984 -0.877464
v 0.471904 0.618497 -0.886178
v 0.121589 -0.748398 -0.065307
v -0.181677 -0.358212 0.289257
v -0.213297 -0.528332 0.245419
v -0.811129 -0.410225 0.653601
v -0.333573 0.881817 -0.071737
v -0.753708 0.920801 -0.193714
v -1.104631 -0.403488 -0.486957
v -0.780201 0.795654 -0.696063
v -0.159745 -1.000993 -0.088958
v -0.406996 -0.229027 -0.981897
v 0.048456 0.621253 -0.187281
v 0.119699 -0.964924 -0.630198
v 0.080041 0.197366 -1.349023
v 0.004492 0.700894 -0.358192
v 0.101341 0.556919 -0.317980
v 0.293867 0.666523 -0.768098
v 0.484811 -0.274118 -1.381379
v 0.434665 -0.579300 -1.234962
v 0.316168 -0.837153 -0.801412
v 0.353208 0.207150 -1.370831
v 0.283679 -0.003751 -1.431241
v 0.116470 0.610614 -0.943968
v 0.247469 0.662153 -0.538545
v 0.692336 -0.427623 -1.210671
v 0.723563 -0.587206 -1.033959
v 0.519854 -0.766298 -0.927574
v 0.414316 0.540668 -1.084445
v 0.706341 -0.150794 -1.294568
v 0.178089 0.602729 -0.378245
v 0.545226 0.609131 -0.545140
v 0.908113 -0.450396 -0.893143
v 0.708696 -0.715618 -0.747455
v 0.207878 -0.813208 -0.254137
v 0.894675 -0.038079 -1.112488
v 0.869843 -0.301123 -1.093354
v 0.361946 0.766578 -0.375372
v 0.416664 -0.836622 -0.620994
v 0.477963 0.642672 -0.698718
v 0.642714 0.841790 -0.371589
v 0.953056 0.246998 -0.576996
v 0.925844 -0.477530 -0.568851
v 0.712983 -0.700352 -0.539901
v 0.270897 -0.762159 -0.313794
v 0.212239 -0.725568 -0.078343
v 0.885826 0.328928 -0.853997
v 0.139455 -0.789309 -0.113927
v 1.013646 0.590852 -0.441358
v 0.997097 -0.148817 -0.423390
v 0.502698 -0.611417 -0.170726
v 0.999738 0.085223 -0.524401
v 1.012557 -0.233018 -0.815335
v 0.729413 -0.599314 -0.330431
v 0.771780 0.692326 -0.485444
v 0.823663 0.435241 -0.594928
v 0.865994 0.939477 -0.146021
v 1.306780 0.235295 -0.241752
v 0.961140 0.782048 -0.319182
v 0.265128 -0.758015 -0.175227
v 1.169001 0.417659 -0.396371
v 0.266668 0.835340 -0.222485
v 0.908426 -0.326158 -0.313828
v 1.180787 0.779570 -0.008674
v 1.304092 -0.098270 -0.061173
v 0.718276 -0.528835 0.069673
v 1.160441 -0.125094 -0.302877
v 1.145363 0.689317 -0.243067
v 1.334206 0.466771 -0.110115
v 1.292001 0.658659 0.211784
v 1.255940 -0.206741 0.299400
v 0.241517 -0.562374 -0.004166
v 1.396243 0.375835 0.117488
v 0.107550 -0.636498 0.014886
v 0.397807 0.986902 0.004789
v 0.748091 0.996566 -0.054555
v 1.026585 0.914240 0.089835
v 1.209238 -0.123087 0.519783
v 0.711469 -0.514703 0.342506
v 0.605577 -0.534288 0.201509
v 1.057798 0.884120 0.305239
v 0.193858 -0.456345 0.040530
v 1.382696 0.207682 0.343805
v 0.097299 -0.596455 0.032990
v 1.344132 -0.020802 0.315375
v 0.158314 0.874413 0.125960
v 0.805151 0.811903 0.669988
v 1.057812 -0.067305 0.728030
v 0.977258 -0.297458 0.601171
v 0.699170 -0.584078 0.404805
v 0.075084 -0.481925 0.107055
v 1.191691 0.432922 0.660275
v 0.066559 -0.633310 0.038283
v 1.259896 0.116955 0.591972
v 0.402543 1.001688 0.174451
v 0.900781 -0.422994 0.451352
v 1.018460 0.219870 0.830541
v 0.869041 -0.021272 0.848068
v 0.782488 -0.216787 0.762384
v 0.674975 -0.292396 0.717634
v 0.689312 -0.553534 0.675404
v 0.759056 -0.437262 0.510423
v 0.562685 1.033839 0.222096
v 0.307074 0.941759 0.334509
v 0.580382 -0.662792 0.304037
v 0.945266 0.482436 0.827237
v 0.710090 0.103232 0.920412
v 0.555447 -0.117648 0.842031
v 0.404586 -0.711421 0.737416
v 0.228835 -0.637714 0.179517
v 0.638055 0.342843 0.934759
v 0.070239 -0.485101 0.067612
v 0.659903 -0.427441 0.764284
v 0.534363 0.929741 0.527692
v 0.508683 -0.767030 0.493491
v 0.363779 0.082375 0.874366
v 0.181733 -0.707367 0.331133
v 0.097780 0.819008 0.179488
v 0.424733 0.804391 0.667206
v 0.481982 0.564718 0.857966
v 0.150307 -0.650854 0.680660
v 0.076274 -0.600877 0.250360
v 0.000386 0.685204 0.006174
v 0.214651 -0.091425 0.714859
v 0.235076 0.824442 0.515366
v 0.156891 0.608422 0.665919
v 0.012358 0.229370 0.612284
v -0.004477 -0.146838 0.557930
v 0.011234 -0.589811 0.398382
v 0.123473 -0.445846 0.786650
v 0.233102 -0.263863 0.832993
v 0.039663 -0.252121 0.685650
v 0.072286 0.417711 0.665121
v 0.110898 -0.687987 0.455589
v 0.088418 0.197709 0.707279
v 0.012131 0.719079 0.138208
v -0.037627 0.542791 0.410409
v -0.079664 0.064222 0.827301
v -0.074508 -0.208592 0.657569
v -0.050902 -0.236455 0.531700
v -0.036354 -0.495720 0.483587
v -0.082123 0.269988 0.784238
v -0.325527 0.538480 0.790171
v -0.185245 -0.371340 0.525173
v -0.023903 -0.512549 0.114023
v -0.078875 -0.384541 0.302787
v -0.112377 0.421629 0.666191
v -0.240054 0.369817 0.895076
v -0.295284 0.114955 1.024244
v -0.164437 -0.084596 0.890897
v -0.082103 0.634473 0.092527
v -0.227512 0.542910 0.297385
v -0.352717 0.603742 0.664525
v -0.454167 -0.313080 0.905471
v -0.135625 -0.490083 0.309777
v -0.436955 0.387703 0.994498
v -0.523924 0.308088 1.064803
v -0.574941 0.670466 0.553875
v -0.599487 0.618795 0.749562
v -0.343305 0.625262 0.460694
v -0.331861 -0.440906 0.326371
v -0.670330 0.500275 0.928310
v -0.144456 -0.576229 0.148077
v -0.125890 -0.574813 0.225171
v -0.827859 0.276027 1.025574
v -0.728955 0.106923 1.087625
v -0.409654 -0.446511 0.654078
v -1.108178 0.037784 0.773705
v -1.007989 -0.231689 0.736730
v -0.589089 -0.483145 0.442625
v -0.244202 -0.497664 0.170963
v -0.989670 0.129170 0.955030
v -0.101821 0.670886 0.078957
v -0.626636 -0.448279 0.716076
v -0.231620 -0.451193 0.258816
v -0.772304 0.599185 0.336462
v -1.148366 0.006288 0.604196
v -1.082002 -0.186549 0.476147
v -0.857648 -0.396605 0.439755
v -0.365695 -0.542508 0.156596
v -0.259378 -0.672794 0.141973
v -1.093704 0.286236 0.727957
v -0.971285 -0.319427 0.582550
v -1.031649 0.649681 0.125978
v -0.918783 -0.289311 0.271560
v -0.369004 0.710096 0.239931
v -0.706469 -0.508085 0.133958
v -0.524994 -0.430670 0.236630
v -0.724236 0.721661 0.243434
v -0.484445 -0.503369 0.136890
v -0.547822 0.847068 0.100264
v -0.916071 0.781285 0.044819
v -0.712683 -0.732534 -0.058100
v -1.115170 0.479283 0.179861
v -1.209660 0.185775 0.176830
v -0.495113 -0.694449 0.098097
v -0.451197 0.935483 -0.175379
v -1.097563 0.721462 -0.162840
v -1.229354 0.564483 -0.373928
v -0.711212 0.866505 0.038264
v -0.551437 -0.859677 -0.011894
v -1.277284 0.415888 -0.069774
v -0.981436 0.811346 -0.434440
v -1.233441 0.441715 -0.576739
v -0.917392 -0.545837 -0.463653
v -0.585395 -0.969110 -0.123523
v -1.287164 -0.103003 -0.470450
v -1.350868 0.166531 -0.352273
v -0.857143 -0.588490 -0.224423
v -0.818519 -0.844232 -0.301428
v -1.111010 0.109298 -0.853832
v -1.136276 -0.098572 -0.773133
v -0.884033 -0.714580 -0.378498
v -1.240228 0.177957 -0.697625
v -0.184211 0.834704 -0.146945
v -1.020681 0.417988 -0.872273
v -0.741607 -0.230679 -0.970793
v -0.734245 -0.747646 -0.884505
v -1.004392 -0.297651 -0.776231
v -0.887406 -0.483306 -0.643870
v -0.854061 -0.789714 -0.660184
v -0.746106 0.908644 -0.457489
v -0.535642 -1.100377 -0.314014
v -0.595928 0.366293 -1.054826
v -0.656726 0.160231 -1.080863
v -0.588069 -0.297064 -0.950281
v -0.547104 0.883105 -0.605099
v -0.674364 -0.945908 -0.792677
v -0.486973 -1.144400 -0.517000
v -0.297225 -1.128761 -0.264033
v -0.799177 0.398157 -1.006230
v -0.790653 -0.546580 -0.859180
v -0.431325 -1.073283 -0.806891
v -0.366158 -1.140281 -0.677056
v -0.642391 -0.029576 -1.067891
v -0.138402 0.823472 -0.300523
v -0.523819 -0.729677 -1.030865
v -0.469309 0.505396 -1.003784
v -0.290660 -1.167201 -0.477159
v -0.207656 -0.054314 -1.263660
v -0.174865 -1.043054 -0.830176
v -0.152290 -1.128306 -0.649357
v -0.339194 -0.869307 -1.021159
v -0.413892 0.645726 -0.898741
v -0.113485 -1.104809 -0.296311
v -0.326354 0.178134 -1.062021
v -0.386418 -0.036917 -1.052881
v -0.065527 0.744741 -0.151969
v -0.317979 -0.226505 -1.127893
v -0.010953 -0.931296 -0.869804
v 0.084990 -0.984117 -0.282793
v -0.140317 -0.379574 -1.245144
v -0.117309 0.763900 -0.553550
v -0.184164 -0.913310 -0.969160
v -0.009885 0.575374 -0.916362
v -0.007650 -0.721162 -0.983396
v -0.005774 -0.964683 -0.142248
v -0.024117 0.719963 -0.210783
v 0.142468 -0.584953 -1.232101
v -0.061924 0.419943 -1.127332
v 0.099097 0.764115 -0.081644
v 0.172266 0.863064 -0.005811
v 0.109226 -0.677228 -0.007760
v 0.001437 0.676081 0.021325
v 0.022299 -0.617082 0.076339
v -0.029717 0.634771 0.073940
v -0.019311 0.660465 0.184008
v -0.044927 -0.684914 0.087188
v -0.018131 -0.821358 0.007688
v -0.109492 0.717208 0.030934
v -0.107180 0.731716 -0.000300
v -0.102791 0.741898 -0.046012
v -0.027847 0.674977 -0.070800
v -0.085596 -0.888120 -0.009442
v -0.094542 -0.651386 -1.046908
v -0.142265 0.207677 -1.240969
v 0.003354 0.637501 -0.069359
v 0.000201 -0.068800 -1.382474
v 0.039625 -0.358359 -1.349856
v 0.274429 -0.351445 -1.388649
v 0.047937 0.610175 -0.485145
v -0.019652 0.618764 -0.646693
v 0.250930 -0.763106 -1.036051
v -0.003973 -1.089111 -0.480556
v 0.183231 0.418563 -1.237142
v 0.025378 0.680922 -0.081147
v 0.199273 -0.850256 -0.646367
v 0.251550 -0.818184 -0.442525
v 0.543310 0.300720 -1.271774
v 0.821087 0.162316 -1.147324
v 0.578396 -0.007256 -1.361744
v 0.097985 0.743572 -0.120565
v 0.054201 -0.864536 -0.083382
v 0.393973 0.637878 -0.485638
v 0.702905 0.535864 -0.730023
v 0.693913 0.453401 -1.010201
v 0.441971 -0.772231 -0.373287
v 0.702684 0.531776 -0.578210
v 0.973071 0.205453 -0.696299
v 0.996416 0.034444 -0.874971
v 1.036702 -0.082156 -0.695372
v 0.324298 -0.584482 -0.099511
v 0.119393 0.799586 -0.054646
v 0.115620 -0.710861 -0.034264
v 1.222363 0.106868 -0.346130
v 1.029006 -0.309573 -0.234681
v 0.497452 0.952016 -0.182756
v 0.929254 -0.448458 -0.077544
v 0.678737 -0.470928 -0.156601
v 0.450430 -0.481789 -0.047204
v 1.389872 0.088920 0.038448
v 0.400328 -0.482431 0.060750
v 0.256592 -0.410467 0.007380
v 1.153533 -0.327855 0.033803
v 1.025195 -0.428069 0.259775
v 0.838619 1.004602 0.180050
v 0.320046 -0.569919 0.099570
v 1.334238 0.445870 0.421314
v 0.127743 -0.470012 0.065826
v 0.124519 0.832868 0.059970
v 1.130608 0.711315 0.525984
v 0.345573 -0.726902 0.282985
v 0.741289 0.945327 0.491126
v 0.938617 0.910905 0.422324
v 0.470412 -0.660836 0.212962
v 0.673348 -0.651571 0.496525
v 0.924398 0.640221 0.758989
v 0.097908 0.814855 0.118233
v 0.584718 -0.643153 0.735944
v 0.299471 -0.774372 0.469921
v 0.466484 -0.489518 0.867960
v 0.617573 0.648072 0.830401
v 0.465127 -0.169893 0.795160
v 0.493146 -0.289604 0.849342
v 0.031876 -0.485502 0.092080
v 0.345793 -0.430316 0.879282
v 0.306120 -0.605605 0.815811
v 0.294074 -0.766525 0.594825
v 0.272497 0.349674 0.844932
v 0.049167 0.720157 0.375675
v 0.048062 -0.568551 0.630048
v 0.017340 -0.468002 0.160547
v 0.088106 -0.120556 0.665182
v 0.039045 -0.024234 0.562699
v -0.017939 -0.666479 0.081015
v -0.033742 -0.393764 0.589445
v -0.044659 0.399245 0.487401
v -0.032980 -0.471934 0.269785
v -0.088320 -0.292313 0.402891
v -0.141951 0.511339 0.463059
v -0.043584 -0.541978 0.210468
v -0.247292 -0.303145 0.792482
v -0.409092 -0.154250 1.007648
v -0.572109 -0.025694 1.091870
v -0.101101 0.424285 0.248259
v -0.080359 0.525202 0.169999
v -0.788490 0.579524 0.753587
v -0.065842 -0.718337 0.082976
v -0.812370 -0.118779 1.012919
v -0.669408 -0.272055 0.959558
v -0.935016 -0.224024 0.865979
v -0.498852 0.639139 0.332181
v -0.356572 -0.520621 0.258363
v -0.954386 0.412520 0.840460
v -0.094373 -0.746600 0.079000
v -0.472831 -0.507181 0.230482
v -0.950959 0.518302 0.654458
v -0.872168 0.584441 0.482490
v -1.067327 0.402111 0.528853
v -1.137896 0.251453 0.492750
v -0.123434 -0.797525 0.067162
v -0.129797 0.709221 0.067704
v -0.455378 -0.450201 0.301684
v -0.727186 -0.399374 0.254903
v -0.975210 0.450457 0.320029
v -1.095998 0.194105 0.305643
v -1.095606 0.003760 0.286207
v -0.118236 -0.859866 0.027519
v -0.307045 0.820283 0.055583
v -1.096710 -0.282656 0.122354
v -0.921409 -0.400325 0.160032
v -1.205444 -0.158710 0.066129
v -1.205262 -0.319875 -0.230422
v -0.992098 -0.505920 -0.120855
v -0.727445 -0.587988 -0.033586
v -0.336840 -0.871451 0.049689
v -1.326816 0.193586 -0.097219
v -1.306608 -0.061268 -0.119887
v -0.366720 -1.047188 -0.125813
v -0.549931 0.944520 -0.354275
v -0.748806 -0.984423 -0.428890
v -1.063308 0.634130 -0.653336
v -0.298788 0.901973 -0.343410
v -0.656758 -1.057285 -0.594658
v -0.681206 0.698979 -0.855027
v -0.909160 0.609080 -0.828825
v -0.964810 0.085571 -0.975907
v -0.067734 0.722023 -0.077659
v -0.773871 -0.391010 -0.836837
v -0.594147 -0.508099 -1.022390
v -0.588573 -0.916640 -0.906626
v -0.428038 0.807523 -0.723756
v -0.240235 0.709103 -0.764188
v -0.156575 0.501338 -0.888822
v -0.263852 0.329148 -1.011758
v -0.312808 -0.376869 -1.063401
v -0.366482 -0.576811 -1.089598
v -0.339576 0.875323 -0.551216
vn -0.3543 0.9292 -0.1054
vn 0.2632 -0.8040 -0.5333
vn 0.2658 0.9199 -0.2885
vn 0.4457 -0.5619 0.6968
vn 0.1621 -0.6893 0.7061
vn -0.6442 -0.6211 0.4464
vn -0.3964 -0.8840 0.2477
vn 0.2896 0.9182 0.2704
vn -0.2734 0.9548 0.1164
vn -0.7054 -0.6617 -0.2541
vn -0.3067 0.8077 -0.5035
vn 0.2103 -0.7590 0.6162
vn -0.4382 -0.1051 -0.8927
vn 0.0449 0.9632 -0.2650
vn 0.6801 -0.6914 -0.2438
vn -0.2595 0.3763 -0.8894
vn 0.7418 0.6677 -0.0629
vn 0.0127 0.9712 -0.2381
vn 0.0010 0.9917 -0.1282
vn 0.2805 -0.2416 -0.9290
vn 0.2172 -0.6446 -0.7330
vn 0.0651 -0.9801 -0.1878
vn 0.1088 0.3948 -0.9123
vn 0.0082 0.0825 -0.9966
vn -0.1778 0.9122 -0.3693
vn -0.0450 0.9851 0.1662
vn 0.5400 -0.4428 -0.7157
vn 0.5829 -0.6584 -0.4761
vn 0.3247 -0.8790 -0.3492
vn 0.1729 0.8108 -0.5592
vn 0.5797 -0.0783 -0.8111
vn -0.5153 0.8307 -0.2108
vn 0.1645 0.8875 -0.4304
vn 0.8250 -0.4917 -0.2785
vn 0.5767 -0.8098 -0.1080
vn 0.6712 -0.6972 0.2518
vn 0.8188 0.0475 -0.5721
vn 0.7867 -0.2720 -0.5541
vn -0.3395 0.6599 -0.6703
vn 0.2123 -0.9739 0.0799
vn 0.2771 0.9605 -0.0255
vn 0.0196 0.7594 -0.6503
vn 0.8373 0.3125 -0.4486
vn 0.8573 -0.5004 0.1205
vn 0.5668 -0.8041 0.1794
vn 0.4955 -0.8035 0.3301
vn 0.4788 -0.5814 0.6578
vn 0.8006 0.5417 -0.2562
vn 0.5339 -0.6471 0.5443
vn 0.4947 0.4217 -0.7599
vn 0.8748 -0.3753 -0.3064
vn 0.3062 -0.7018 0.6432
vn 0.9170 -0.0013 -0.3989
vn 0.9616 -0.2021 -0.1859
vn 0.5976 -0.6655 0.4472
vn 0.1975 0.5704 -0.7973
vn 0.6372 0.5750 -0.5131
vn 0.3269 0.8652 -0.3802
vn 0.8854 -0.0117 -0.4646
vn 0.4244 0.6956 -0.5798
vn 0.7179 -0.6369 0.2811
vn 0.6921 0.2126 -0.6898
vn -0.4826 0.7383 -0.4712
vn 0.7167 -0.6894 -0.1052
vn 0.7115 0.6736 -0.2001
vn 0.8612 -0.4379 -0.2581
vn 0.1183 -0.9872 -0.1070
vn 0.6910 -0.4637 -0.5546
vn 0.6754 0.5620 -0.4775
vn 0.9035 0.2870 -0.3184
vn 0.8483 0.5227 0.0844
vn 0.7912 -0.5838 0.1822
vn 0.5376 -0.2780 0.7960
vn 0.9851 0.1672 -0.0414
vn 0.3874 -0.3824 0.8388
vn -0.2788 0.9395 -0.1992
vn 0.1279 0.9602 -0.2481
vn 0.5209 0.8485 -0.0935
vn 0.7387 -0.4786 0.4746
vn 0.5936 -0.7995 -0.0923
vn 0.3035 -0.8826 -0.3589
vn 0.5821 0.7901 0.1922
vn 0.3116 -0.9439 0.1096
vn 0.9668 -0.0413 0.2521
vn 0.4323 -0.3101 0.8468
vn 0.9244 -0.3256 0.1988
vn -0.5853 0.8106 -0.0160
vn 0.2328 0.7160 0.6581
vn 0.5604 -0.3875 0.7320
vn 0.4604 -0.6851 0.5645
vn 0.8426 -0.4844 -0.2351
vn -0.1931 -0.9205 -0.3397
vn 0.7246 0.2355 0.6476
vn 0.4985 -0.3075 0.8105
vn 0.8095 -0.1414 0.5698
vn -0.3148 0.9486 0.0324
vn 0.3740 -0.8480 0.3755
vn 0.5039 -0.0257 0.8634
vn 0.3083 -0.3410 0.8880
vn 0.2182 -0.5793 0.7854
vn 0.4843 -0.3313 0.8098
vn 0.8414 -0.3574 0.4053
vn 0.6595 -0.6450 0.3861
vn -0.0561 0.9939 0.0948
vn -0.4208 0.8726 0.2478
vn 0.5389 -0.7239 -0.4309
vn 0.3992 0.2811 0.8727
vn 0.1016 -0.1709 0.9800
vn -0.0638 -0.4391 0.8962
vn 0.0577 -0.8011 0.5957
vn -0.2355 -0.7501 -0.6180
vn 0.0231 0.1185 0.9927
vn 0.3192 -0.5458 0.7747
vn 0.7303 -0.0485 0.6814
vn -0.1194 0.8686 0.4809
vn 0.3322 -0.9431 -0.0127
vn -0.3457 -0.1981 0.9172
vn -0.3995 -0.8656 -0.3020
vn -0.6952 0.7131 0.0901
vn -0.2529 0.6955 0.6725
vn -0.2311 0.3882 0.8921
vn -0.5539 -0.6665 0.4990
vn -0.6027 -0.6909 -0.3993
vn -0.9237 0.3419 -0.1731
vn -0.4813 0.1255 0.8675
vn -0.5124 0.7271 0.4568
vn -0.6030 0.4530 0.6566
vn 0.0440 0.2357 0.9708
vn 0.0439 -0.0908 0.9949
vn -0.7808 -0.6220 -0.0599
vn -0.6015 -0.1578 0.7832
vn -0.3114 0.3025 0.9008
vn -0.7280 0.1968 0.6568
vn -0.7348 0.2121 0.6442
vn -0.6092 -0.7922 0.0359
vn -0.7022 -0.0910 0.7062
vn -0.8235 0.5671 -0.0134
vn -0.8787 0.3521 0.3225
vn 0.8095 -0.0393 0.5858
vn 0.7658 -0.5123 0.3888
vn -0.3521 -0.6450 0.6782
vn -0.9117 -0.3799 0.1567
vn 0.7814 0.3069 0.5433
vn 0.4073 0.7674 0.4951
vn 0.5606 -0.8146 0.1485
vn 0.5928 -0.5882 0.5501
vn -0.5714 -0.4104 0.7107
vn 0.7135 0.6135 0.3385
vn 0.5683 0.4621 0.6808
vn 0.4795 0.0413 0.8765
vn 0.6625 -0.3141 0.6800
vn 0.4630 0.5866 0.6645
vn 0.5677 0.7721 0.2858
vn 0.3679 0.8924 0.2612
vn 0.2052 -0.7167 0.6665
vn -0.0453 -0.3595 0.9320
vn 0.2923 0.5474 0.7842
vn 0.1103 0.3428 0.9329
vn -0.0355 0.9976 0.0602
vn -0.0025 0.9138 0.4063
vn 0.3426 0.9386 -0.0414
vn 0.2900 -0.8824 0.3705
vn -0.1284 0.7068 0.6957
vn 0.1307 -0.6934 0.7086
vn 0.0475 -0.9308 0.3624
vn -0.3933 0.3476 0.8512
vn -0.2314 0.0132 0.9728
vn 0.2484 -0.9308 0.2681
vn -0.9037 -0.1178 0.4115
vn -0.7549 -0.5685 0.3270
vn -0.0867 -0.9940 -0.0665
vn -0.1757 -0.7438 0.6449
vn -0.6881 0.0366 0.7247
vn 0.5386 0.5646 0.6254
vn -0.1081 -0.9262 0.3611
vn -0.0918 -0.5406 0.8362
vn -0.3684 0.8750 0.3140
vn -0.9842 -0.1507 0.0926
vn -0.8644 -0.4888 -0.1178
vn -0.4933 -0.8591 -0.1364
vn -0.0940 -0.6592 0.7461
vn 0.0230 -0.3047 0.9522
vn -0.8874 0.3225 0.3295
vn -0.6722 -0.7361 0.0799
vn -0.6017 0.6189 0.5049
vn -0.6621 -0.7156 0.2225
vn 0.2647 0.6855 0.6782
vn -0.1675 -0.8340 0.5257
vn -0.3110 -0.9189 0.2426
vn -0.1954 0.7218 0.6640
vn -0.3635 -0.6909 0.6250
vn 0.0398 0.8638 0.5022
vn -0.4512 0.8025 0.3903
vn -0.6802 -0.3255 0.6568
vn -0.7248 0.3948 0.5646
vn -0.8435 0.0444 0.5353
vn -0.3521 -0.2905 0.8897
vn 0.1259 0.9803 0.1522
vn -0.6842 0.7143 0.1469
vn -0.8551 0.5080 -0.1033
vn -0.1920 0.8979 0.3962
vn -0.4034 -0.5167 0.7552
vn -0.9028 0.3514 0.2479
vn -0.5506 0.8147 -0.1818
vn -0.8581 0.3540 -0.3720
vn -0.8475 -0.5198 -0.1074
vn -0.4722 -0.6763 0.5653
vn -0.9178 -0.3144 -0.2425
vn -0.9942 0.0412 -0.0996
vn -0.7434 -0.6068 0.2812
vn -0.8258 -0.4695 0.3125
vn -0.7073 -0.0206 -0.7066
vn -0.7366 -0.3254 -0.5929
vn -0.9539 -0.2624 0.1458
vn -0.8676 0.0491 -0.4948
vn 0.4787 0.8571 0.1904
vn -0.6133 0.3251 -0.7199
vn -0.2731 -0.4449 -0.8529
vn -0.7005 -0.2773 -0.6576
vn -0.5795 -0.5318 -0.6175
vn -0.7958 -0.4208 -0.4354
vn -0.8951 -0.3601 -0.2631
vn -0.2520 0.9429 -0.2176
vn -0.3776 -0.8814 0.2839
vn -0.0531 0.2725 -0.9607
vn -0.1397 0.0288 -0.9898
vn -0.2626 -0.0863 -0.9610
vn -0.0131 0.9164 -0.4000
vn -0.5766 -0.6731 -0.4631
vn -0.2909 -0.9561 -0.0346
vn 0.0095 -0.9377 0.3474
vn -0.3211 0.3191 -0.8917
vn -0.7958 0.0134 -0.6055
vn -0.2032 -0.8242 -0.5286
vn -0.0870 -0.9498 -0.3005
vn -0.1241 -0.2230 -0.9669
vn 0.5444 0.8387 -0.0130
vn -0.3591 -0.2516 -0.8987
vn 0.0917 0.4410 -0.8928
vn 0.0474 -0.9982 0.0373
vn -0.6235 0.0393 -0.7808
vn 0.2209 -0.8005 -0.5572
vn 0.2902 -0.9192 -0.2661
vn -0.0376 -0.4846 -0.8740
vn 0.1744 0.6289 -0.7577
vn 0.3165 -0.9016 0.2948
vn -0.3389 0.2366 -0.9106
vn -0.4109 -0.0849 -0.9077
vn 0.6513 0.7378 0.1773
vn -0.7593 -0.1707 -0.6280
vn 0.5105 -0.6078 -0.6082
vn 0.6414 -0.7147 0.2789
vn -0.5338 -0.3908 -0.7499
vn 0.5555 0.7704 -0.3129
vn 0.2267 -0.5606 -0.7965
vn -0.3891 0.8635 -0.3208
vn 0.0346 -0.6976 -0.7156
vn 0.4684 -0.7154 0.5185
vn 0.7566 0.6435 0.1163
vn -0.1827 -0.6495 -0.7381
vn -0.4272 0.6686 -0.6087
vn -0.7226 0.6246 -0.2964
vn -0.5696 0.7919 -0.2200
vn 0.4308 -0.4344 0.7910
vn -0.9716 0.2354 -0.0245
vn 0.4835 -0.2309 0.8443
vn -0.4821 0.8370 0.2588
vn -0.8817 0.4666 0.0696
vn 0.3655 -0.2979 0.8819
vn 0.4593 -0.4868 0.7431
vn 0.4999 0.7577 0.4195
vn 0.5040 0.7960 0.3351
vn 0.5477 0.7999 0.2455
vn 0.7654 0.6434 0.0165
vn 0.3492 -0.6338 0.6902
vn -0.0880 -0.5065 -0.8578
vn -0.5323 0.3875 -0.7526
vn 0.2062 0.9624 -0.1767
vn -0.3436 0.0135 -0.9390
vn -0.3024 -0.3425 -0.8895
vn -0.0055 -0.3328 -0.9430
vn 0.3422 0.9393 0.0260
vn 0.2179 0.9351 -0.2794
vn -0.0213 -0.8693 -0.4939
vn 0.5085 -0.8610 -0.0052
vn -0.1140 0.6675 -0.7358
vn -0.8297 0.4996 -0.2489
vn 0.4404 -0.8832 -0.1613
vn 0.4925 -0.8583 0.1444
vn 0.3631 0.5116 -0.7787
vn 0.7027 0.3406 -0.6247
vn 0.4009 0.1296 -0.9069
vn -0.6848 0.6011 -0.4120
vn 0.5847 -0.5571 0.5897
vn -0.0929 0.9269 -0.3637
vn 0.5603 0.8205 -0.1132
vn 0.5526 0.7005 -0.4516
vn 0.2538 -0.8867 0.3864
vn 0.3951 0.7618 -0.5134
vn 0.9262 0.3706 -0.0698
vn 0.9410 0.1764 -0.2887
vn 1.0000 0.0017 -0.0092
vn 0.4388 -0.5549 0.7068
vn -0.6699 0.6954 -0.2600
vn 0.4299 -0.5174 0.7399
vn 0.7562 -0.1742 -0.6307
vn 0.5490 -0.6979 -0.4600
vn -0.1514 0.8976 -0.4141
vn 0.3743 -0.8874 -0.2691
vn 0.3784 -0.9061 0.1892
vn 0.0058 -0.9265 0.3762
vn 0.9733 -0.1841 -0.1374
vn -0.0467 -0.8405 -0.5398
vn 0.3444 -0.9339 0.0962
vn 0.6808 -0.7167 -0.1511
vn 0.5041 -0.8518 0.1429
vn 0.2687 0.9621 0.0462
vn 0.0234 -0.6232 -0.7817
vn 0.8993 0.2604 0.3514
vn 0.2954 -0.8155 0.4977
vn -0.7192 0.6860 -0.1103
vn 0.6520 0.5847 0.4826
vn 0.0032 -0.8978 -0.4404
vn 0.1458 0.8963 0.4188
vn 0.4004 0.8381 0.3704
vn 0.2920 -0.7289 -0.6193
vn 0.7552 -0.6554 0.0109
vn 0.4007 0.5066 0.7634
vn -0.7186 0.6838 -0.1268
vn 0.5057 -0.6294 0.5900
vn -0.1697 -0.9819 -0.0846
vn 0.2452 -0.2328 0.9411
vn 0.0233 0.5200 0.8538
vn -0.0596 -0.0359 0.9976
vn 0.2993 0.2814 0.9117
vn 0.3992 -0.6944 0.5988
vn -0.1367 -0.0508 0.9893
vn -0.2288 -0.5155 0.8257
vn -0.2188 -0.9383 0.2679
vn -0.4519 0.1309 0.8824
vn -0.7498 0.5940 0.2913
vn -0.7641 -0.5026 0.4043
vn 0.0420 -0.9924 -0.1157
vn -0.5725 0.4278 0.6994
vn 0.0293 -0.1106 0.9934
vn 0.4337 -0.2890 0.8534
vn -0.8964 -0.1208 0.4265
vn -0.0870 0.8138 0.5746
vn -0.3216 -0.8757 0.3601
vn -0.3067 -0.8901 0.3372
vn 0.6390 0.7686 0.0302
vn 0.5889 -0.7641 0.2632
vn 0.5151 -0.6804 0.5214
vn 0.3099 -0.4258 0.8501
vn 0.0562 -0.2134 0.9753
vn -0.0978 0.8982 0.4287
vn -0.2496 0.7005 0.6686
vn -0.3491 0.8613 0.3691
vn 0.3189 -0.3636 0.8753
vn -0.3899 -0.3624 0.8465
vn -0.1419 -0.6628 0.7352
vn -0.5830 -0.5673 0.5816
vn 0.0904 0.9436 0.3186
vn 0.0939 -0.8628 0.4968
vn -0.6216 0.5596 0.5481
vn 0.1253 -0.5475 0.8273
vn -0.5208 -0.7889 0.3262
vn -0.6343 0.7467 0.2004
vn -0.4914 0.8682 -0.0693
vn -0.8275 0.5607 -0.0298
vn -0.9658 0.2434 -0.0892
vn 0.3274 -0.2843 0.9011
vn 0.4894 0.6737 0.5538
vn -0.1517 -0.9636 0.2199
vn -0.3009 -0.9269 0.2241
vn -0.7423 0.6052 0.2876
vn -0.9562 0.1701 0.2381
vn -0.9423 -0.2409 0.2326
vn 0.2286 -0.5733 0.7868
vn 0.3304 0.8268 0.4552
vn -0.6723 -0.5434 0.5027
vn -0.4376 -0.7229 0.5346
vn -0.8300 -0.3559 0.4294
vn -0.8153 -0.5751 0.0674
vn -0.5555 -0.8029 0.2162
vn -0.5370 -0.5760 0.6163
vn -0.0777 -0.5634 0.8225
vn -0.9701 0.0498 0.2375
vn -0.9482 -0.2511 0.1945
vn -0.1117 -0.7969 0.5937
vn 0.0124 0.9958 -0.0905
vn -0.7242 -0.6812 0.1067
vn -0.6497 0.6075 -0.4569
vn 0.3299 0.9418 -0.0646
vn -0.5672 -0.8019 -0.1876
vn -0.1593 0.6739 -0.7214
vn -0.4534 0.5775 -0.6789
vn -0.5027 -0.0859 -0.8602
vn 0.6575 0.7379 0.1524
vn -0.6116 -0.2416 -0.7534
vn -0.4619 0.1054 -0.8806
vn -0.4382 -0.5822 -0.6848
vn 0.1411 0.8141 -0.5634
vn 0.4064 0.6951 -0.5930
vn -0.0646 0.7621 -0.6442
vn -0.2058 0.5059 -0.8377
vn -0.4891 -0.0954 -0.8670
vn -0.0628 -0.0198 -0.9978
vn 0.2794 0.9073 -0.3142
vt 0.741105 0.544556
vt 0.709306 0.546516
vt 0.718733 0.499399
vt 0.711626 0.902846
vt 0.736376 0.975759
vt 0.726663 0.969150
vt 0.696257 0.044119
vt 0.737998 0.042291
vt 0.713580 0.095068
vt 0.744731 0.416646
vt 0.717923 0.423809
vt 0.743705 0.838634
vt 0.732313 0.362456
vt 0.709903 0.309994
vt 0.770537 0.331235
vt 0.734587 0.783469
vt 0.701943 0.827258
vt 0.684131 0.761641
vt 0.751395 0.298977
vt 0.734188 0.266911
vt 0.752064 0.238634
vt 0.751986 0.674355
vt 0.755140 0.733199
vt 0.725581 0.676191
vt 0.701475 0.215260
vt 0.756955 0.610206
vt 0.724207 0.602679
vt 0.691697 0.633238
vt 0.685700 0.568740
vt 0.686772 0.498903
vt 0.694466 0.442389
vt 0.703526 0.995224
vt 0.693922 0.949252
vt 0.672209 0.804386
vt 0.695969 0.368833
vt 0.668680 0.304744
vt 0.690882 0.258317
vt 0.692585 0.715950
vt 0.674001 0.667455
vt 0.655203 0.236684
vt 0.754160 0.138390
vt 0.720961 0.187499
vt 0.675048 0.181377
vt 0.668137 0.403629
vt 0.652047 0.362333
vt 0.641037 0.751561
vt 0.655177 0.704397
vt 0.612832 0.216946
vt 0.653327 0.609865
vt 0.636441 0.161777
vt 0.653727 0.540528
vt 0.670215 0.466333
vt 0.643494 0.494980
vt 0.642958 0.435734
vt 0.615296 0.507879
vt 0.639083 0.974106
vt 0.631950 0.939606
vt 0.642536 0.987170
vt 0.648438 0.968750
vt 0.611126 0.439176
vt 0.606654 0.874871
vt 0.624003 0.392630
vt 0.626670 0.808782
vt 0.631160 0.308981
vt 0.621502 0.710484
vt 0.629811 0.653598
vt 0.597034 0.129727
vt 0.639454 0.121865
vt 0.603984 0.289117
vt 0.587202 0.702585
vt 0.609565 0.666895
vt 0.582716 0.766932
vt 0.599141 0.628233
vt 0.584860 0.581593
vt 0.621152 0.580623
vt 0.612485 0.069310
vt 0.599469 0.553052
vt 0.621912 0.951261
vt 0.609444 0.983659
vt 0.608107 0.947778
vt 0.593815 0.477504
vt 0.548581 0.945099
vt 0.591022 0.369466
vt 0.554782 0.832319
vt 0.575780 0.523953
vt 0.540334 0.466587
vt 0.564856 0.458852
vt 0.552629 0.392592
vt 0.569484 0.299091
vt 0.551120 0.708234
vt 0.555268 0.230170
vt 0.547162 0.173291
vt 0.550743 0.602790
vt 0.535201 0.312126
vt 0.528551 0.757336
vt 0.531823 0.665869
vt 0.563788 0.654636
vt 0.559404 0.094954
vt 0.528016 0.556673
vt 0.543992 0.526580
vt 0.549066 0.053020
vt 0.560547 0.054687
vt 0.548421 0.024011
vt 0.535225 0.046600
vt 0.506174 0.933028
vt 0.501843 0.873063
vt 0.535627 0.411490
vt 0.513943 0.362005
vt 0.494583 0.415316
vt 0.483355 0.303229
vt 0.517299 0.246560
vt 0.500347 0.685135
vt 0.513389 0.607780
vt 0.495093 0.522924
vt 0.496011 0.180124
vt 0.466002 0.134338
vt 0.508785 0.130807
vt 0.449218 0.173099
vt 0.474102 0.647219
vt 0.449954 0.596655
vt 0.485725 0.583813
vt 0.453461 0.052012
vt 0.486949 0.054850
vt 0.461302 0.546789
vt 0.486328 0.007812
vt 0.480660 0.018445
vt 0.484375 0.000000
vt 0.472710 0.046661
vt 0.507874 0.476316
vt 0.463653 0.444942
vt 0.460182 0.378960
vt 0.442034 0.819260
vt 0.428814 0.326276
vt 0.486697 0.728691
vt 0.456972 0.714758
vt 0.435116 0.945446
vt 0.402670 0.922299
vt 0.431600 0.866206
vt 0.466255 0.774272
vt 0.431262 0.728341
vt 0.447317 0.280804
vt 0.430089 0.665733
vt 0.419155 0.091942
vt 0.463136 0.497324
vt 0.430298 0.527403
vt 0.434946 0.471590
vt 0.418985 0.597788
vt 0.391753 0.141375
vt 0.425431 0.055226
vt 0.448180 0.053997
vt 0.328023 0.094561
vt 0.379829 0.064652
vt 0.391585 0.553453
vt 0.412810 0.422184
vt 0.405879 0.483200
vt 0.425903 0.374447
vt 0.402490 0.360781
vt 0.415664 0.302018
vt 0.407873 0.758666
vt 0.395666 0.289559
vt 0.420829 0.249792
vt 0.389822 0.708539
vt 0.428874 0.212638
vt 0.389487 0.179916
vt 0.369653 0.404387
vt 0.361749 0.372078
vt 0.367308 0.852937
vt 0.377949 0.781131
vt 0.375919 0.334625
vt 0.357237 0.311431
vt 0.374671 0.239894
vt 0.353946 0.677879
vt 0.391030 0.654919
vt 0.329610 0.160752
vt 0.386200 0.609231
vt 0.394681 0.945743
vt 0.401480 0.956582
vt 0.395306 0.981208
vt 0.378454 0.494712
vt 0.377838 0.438426
vt 0.341832 0.200001
vt 0.298551 0.137228
vt 0.346099 0.593154
vt 0.356205 0.529091
vt 0.300393 0.065762
vt 0.357422 0.992188
vt 0.359688 0.986038
vt 0.359375 1.000000
vt 0.344231 0.472114
vt 0.325132 0.920839
vt 0.360438 0.940686
vt 0.335322 0.407530
vt 0.334515 0.439776
vt 0.329387 0.351488
vt 0.323251 0.805024
vt 0.330908 0.279512
vt 0.323772 0.232349
vt 0.343793 0.751880
vt 0.281196 0.844220
vt 0.307775 0.307997
vt 0.288243 0.729117
vt 0.328738 0.659017
vt 0.290779 0.191452
vt 0.302215 0.620529
vt 0.314564 0.530176
vt 0.329499 0.009748
vt 0.325228 0.019758
vt 0.328125 0.000000
vt 0.295158 0.463582
vt 0.295102 0.401585
vt 0.309625 0.365719
vt 0.270809 0.108205
vt 0.272398 0.586838
vt 0.270179 0.939708
vt 0.306416 0.960589
vt 0.286838 0.265262
vt 0.267069 0.674651
vt 0.237857 0.796975
vt 0.276670 0.336407
vt 0.264150 0.267292
vt 0.255777 0.196925
vt 0.216588 0.077251
vt 0.261680 0.485789
vt 0.274857 0.451119
vt 0.260565 0.389522
vt 0.248761 0.417110
vt 0.251751 0.612319
vt 0.233191 0.525173
vt 0.232388 0.597866
vt 0.203811 0.534719
vt 0.230544 0.977010
vt 0.236024 0.988017
vt 0.234339 0.999857
vt 0.239883 0.031748
vt 0.230613 0.016707
vt 0.234375 0.000000
vt 0.229336 0.403983
vt 0.219137 0.470802
vt 0.235340 0.366969
vt 0.200755 0.394448
vt 0.229239 0.917202
vt 0.213730 0.301583
vt 0.243399 0.315154
vt 0.239848 0.249828
vt 0.211356 0.223962
vt 0.222560 0.674650
vt 0.206316 0.619718
vt 0.228213 0.170468
vt 0.212906 0.123530
vt 0.194645 0.318327
vt 0.166607 0.249567
vt 0.196669 0.751458
vt 0.189560 0.668053
vt 0.182843 0.191900
vt 0.182734 0.605881
vt 0.167379 0.137513
vt 0.172611 0.573107
vt 0.172180 0.493219
vt 0.188192 0.457544
vt 0.191284 0.960836
vt 0.180850 0.886722
vt 0.175236 0.407782
vt 0.190129 0.815194
vt 0.234294 0.713891
vt 0.160156 0.953125
vt 0.163504 0.966517
vt 0.174698 0.014940
vt 0.167688 0.016750
vt 0.171875 0.000000
vt 0.152554 0.428776
vt 0.138275 0.938835
vt 0.160007 0.336799
vt 0.120427 0.266144
vt 0.148373 0.757262
vt 0.172467 0.709652
vt 0.143241 0.676240
vt 0.149960 0.628373
vt 0.136838 0.176600
vt 0.131163 0.117739
vt 0.170527 0.043659
vt 0.202541 0.036838
vt 0.136788 0.045808
vt 0.155663 0.523993
vt 0.126015 0.712262
vt 0.132521 0.209157
vt 0.121233 0.652082
vt 0.142449 0.564692
vt 0.115282 0.599035
vt 0.122725 0.530824
vt 0.141936 0.472983
vt 0.119880 0.445286
vt 0.134186 0.364200
vt 0.101070 0.320601
vt 0.107823 0.382663
vt 0.140211 0.809722
vt 0.106265 0.939968
vt 0.090333 0.821571
vt 0.075479 0.936745
vt 0.092819 0.282233
vt 0.101229 0.231295
vt 0.066282 0.207293
vt 0.096531 0.170812
vt 0.080694 0.665478
vt 0.097281 0.633596
vt 0.093140 0.566750
vt 0.106310 0.051829
vt 0.078806 0.131832
vt 0.078009 0.018038
vt 0.071551 0.258988
vt 0.071122 0.056786
vt 0.064236 0.558151
vt 0.099623 0.510145
vt 0.076084 0.988028
vt 0.078215 0.999639
vt 0.101173 0.444639
vt 0.077435 0.503630
vt 0.066499 0.453600
vt 0.086890 0.414354
vt 0.075695 0.376040
vt 0.055494 0.352345
vt 0.068604 0.295713
vt 0.094175 0.756356
vt 0.051373 0.739819
vt 0.065964 0.694925
vt 0.046391 0.409759
vt 0.023310 0.880267
vt 0.027757 0.809817
vt 0.010399 0.771706
vt 0.028459 0.309001
vt 0.044650 0.253716
vt 0.019352 0.678294
vt 0.010497 0.724659
vt 0.031369 0.196296
vt 0.043449 0.554490
vt 0.020051 0.548455
vt 0.044237 0.491070
vt 0.048229 0.008450
vt 0.036294 0.050880
vt 0.046181 0.013469
vt 0.018646 0.419317
vt 0.024387 0.628012
vt 0.003602 0.605732
vt 0.001943 0.500163
vt 0.008714 0.459328
vt 0.015608 0.999890
vt 0.012641 0.948810
vt 0.021484 0.976563
vt 0.045428 0.950681
vt 0.028037 0.374970
vt 0.003225 0.350033
vt 0.001530 0.282067
vt 0.003380 0.222409
vt 0.002736 0.190644
vt 0.996770 0.447801
vt 0.971498 0.420286
vt 0.997411 0.397674
vt 0.997781 0.826058
vt 0.962741 0.878917
vt 0.936973 0.842745
vt 0.978873 0.351906
vt 0.960215 0.314715
vt 0.990393 0.285096
vt 0.997133 0.679221
vt 0.992880 0.726838
vt 0.975689 0.682447
vt 0.959200 0.772335
vt 0.992136 0.182905
vt 0.983606 0.243575
vt 0.961254 0.177814
vt 0.994153 0.123084
vt 0.913597 0.061298
vt 0.998036 0.067636
vt 0.987517 0.547913
vt 0.958542 0.536313
vt 0.983608 0.486960
vt 0.990862 0.601179
vt 0.954912 0.632869
vt 0.920498 0.543401
vt 0.944418 0.478616
vt 0.932903 0.397934
vt 0.997112 0.888206
vt 0.892773 0.911562
vt 0.991783 0.778705
vt 0.944625 0.250710
vt 0.915793 0.228725
vt 0.933790 0.701497
vt 0.922840 0.344357
vt 0.900504 0.366031
vt 0.896872 0.300447
vt 0.909358 0.806167
vt 0.913260 0.753042
vt 0.935096 0.296467
vt 0.882212 0.222964
vt 0.914341 0.167245
vt 0.911913 0.648090
vt 0.880668 0.110368
vt 0.945962 0.113473
vt 0.887011 0.594415
vt 0.930829 0.599050
vt 0.895420 0.528687
vt 0.906073 0.480741
vt 0.896095 0.428121
vt 0.870632 0.518594
vt 0.925409 0.950167
vt 0.864694 0.954934
vt 0.853690 0.442679
vt 0.865911 0.848278
vt 0.869202 0.393140
vt 0.840738 0.795060
vt 0.868675 0.360267
vt 0.860652 0.317423
vt 0.870513 0.760425
vt 0.861606 0.265179
vt 0.885252 0.707244
vt 0.870572 0.180380
vt 0.881788 0.642969
vt 0.856682 0.680034
vt 0.836608 0.742547
vt 0.839821 0.276097
vt 0.857519 0.596084
vt 0.837129 0.495830
vt 0.838194 0.417303
vt 0.838792 0.543553
vt 0.800676 0.548086
vt 0.803551 0.493543
vt 0.826222 0.959392
vt 0.828154 0.999750
vt 0.826172 0.992188
vt 0.837029 0.036189
vt 0.825490 0.038602
vt 0.829369 0.015693
vt 0.812463 0.431695
vt 0.796292 0.396313
vt 0.834421 0.367408
vt 0.816527 0.873335
vt 0.788654 0.792877
vt 0.825052 0.321217
vt 0.798500 0.724857
vt 0.804649 0.287935
vt 0.818734 0.680621
vt 0.831783 0.594137
vt 0.837613 0.142640
vt 0.806969 0.090917
vt 0.828438 0.190004
vt 0.828953 0.227450
vt 0.783755 0.217420
vt 0.781275 0.265683
vt 0.777903 0.665559
vt 0.820664 0.632017
vt 0.786374 0.173655
vt 0.789975 0.596628
vt 0.766878 0.553219
vt 0.774991 0.485332
vt 0.780502 0.941493
vt 0.796515 0.961942
vt 0.785156 0.953125
vt 0.798566 0.009937
vt 0.794922 0.007812
vt 0.796875 0.000000
vt 0.794764 0.030420
vt 0.813336 0.927757
vt 0.762215 0.904859
vt 0.801745 0.351725
vt 0.758675 0.050469
vt 0.748713 0.482248
vt 0.767962 0.407265
vt 0.793689 0.440159
vt 0.507732 0.793291
vt 0.602469 0.972377
vt 0.613281 0.015625
vt 0.608672 0.007527
vt 0.585938 0.031250
vt 0.573962 0.057692
vt 0.577810 0.017433
vt 0.537864 0.963957
vt 0.546014 0.989692
vt 0.553268 0.025571
vt 0.518329 0.051260
vt 0.474966 0.223828
vt 0.452090 0.988108
vt 0.465599 0.949895
vt 0.380294 0.041326
vt 0.394801 0.043946
vt 0.369207 0.960671
vt 0.339299 0.937992
vt 0.341797 0.054687
vt 0.294674 0.985122
vt 0.996235 0.941267
vt 0.262595 0.044793
vt 0.266063 0.982011
vt 0.222882 0.047635
vt 0.211264 0.967444
vt 0.202971 0.971382
vt 0.613573 0.069804
vt 0.644933 0.030534
vt 0.130593 0.959873
vt 0.139526 0.985131
vt 0.103305 0.975722
vt 0.111555 0.989172
vt 0.116213 0.027981
vt 0.104718 0.021825
vt 0.050900 0.631137
vt 0.073256 0.601560
vt 0.022973 0.118286
vt 0.001745 0.543321
vt 0.002695 0.851563
vt 0.975380 0.964018
vt 0.984378 0.999880
vt 0.981325 0.026743
vt 0.889481 0.985400
vt 0.899933 0.962767
vt 0.832031 0.984375
vt 0.851797 0.059903
s 1
f 16/1/16 23/2/23 24/3/24
f 14/4/14 278/5/278 1/6/1
f 294/7/294 258/8/258 252/9/252
f 280/10/280 24/3/24 281/11/281
f 278/5/278 14/4/14 17/12/17
f 260/13/260 284/14/284 276/15/276
f 280/10/280 260/13/260 276/15/276
f 282/16/282 18/17/18 26/18/26
f 276/15/276 284/14/284 257/19/257
f 257/19/257 2/20/2 251/21/251
f 256/22/256 283/23/283 25/24/25
f 2/20/2 288/25/288 251/21/251
f 261/26/261 25/24/25 286/27/286
f 16/1/16 286/27/286 23/2/23
f 286/27/286 30/28/30 290/29/290
f 24/3/24 23/2/23 292/30/292
f 23/2/23 290/29/290 292/30/292
f 281/11/281 24/3/24 20/31/20
f 1/32/1 287/33/287 14/4/14
f 287/33/287 32/34/32 14/4/14
f 281/11/281 21/35/21 260/13/260
f 21/35/21 29/36/29 284/14/284
f 284/14/284 22/37/22 2/20/2
f 25/24/25 19/38/19 3/39/3
f 22/37/22 40/40/40 288/25/288
f 285/41/285 15/42/15 289/43/289
f 288/25/288 289/43/289 15/42/15
f 21/35/21 27/44/27 28/45/28
f 32/34/32 295/46/295 26/18/26
f 26/18/26 41/47/41 19/38/19
f 289/43/289 288/25/288 298/48/298
f 3/39/3 297/49/297 30/28/30
f 289/43/289 298/48/298 46/50/46
f 30/28/30 297/49/297 290/29/290
f 297/49/297 291/51/291 290/29/290
f 292/30/292 31/52/31 20/31/20
f 291/51/291 37/53/37 31/52/31
f 31/52/31 38/54/38 27/44/27
f 20/31/20 31/52/31 27/44/27
f 291/51/291 301/55/301 37/53/37
f 124/56/124 293/57/293 1/58/1
f 293/57/293 287/59/287 1/58/1
f 37/53/37 54/60/54 38/54/38
f 32/34/32 293/57/293 63/61/63
f 28/45/28 38/54/38 34/62/34
f 27/44/27 38/54/38 28/45/28
f 32/34/32 63/61/63 39/63/39
f 29/36/29 28/45/28 35/64/35
f 295/46/295 39/63/39 33/65/33
f 295/46/295 33/65/33 41/47/41
f 288/25/288 40/40/40 298/48/298
f 41/47/41 296/66/296 3/39/3
f 46/50/46 61/67/61 36/68/36
f 40/40/40 35/64/35 45/69/45
f 33/65/33 56/70/56 299/71/299
f 33/65/33 42/72/42 56/70/56
f 40/40/40 45/69/45 298/48/298
f 57/73/57 43/74/43 48/75/48
f 296/66/296 57/73/57 48/75/48
f 36/68/36 61/67/61 49/76/49
f 48/75/48 300/77/300 301/55/301
f 293/78/293 124/79/124 262/80/262
f 301/55/301 302/81/302 54/60/54
f 293/57/293 304/82/304 63/61/63
f 293/57/293 262/80/262 304/82/304
f 34/62/34 54/60/54 44/83/44
f 39/63/39 63/61/63 308/84/308
f 35/64/35 34/62/34 44/83/44
f 35/64/35 44/83/44 45/69/45
f 300/77/300 53/85/53 302/81/302
f 53/85/53 68/86/68 51/87/51
f 54/60/54 51/87/51 44/83/44
f 44/83/44 51/87/51 64/88/64
f 45/69/45 44/83/44 55/89/55
f 44/83/44 64/88/64 55/89/55
f 56/70/56 42/72/42 60/90/60
f 46/50/46 298/48/298 52/91/52
f 298/48/298 55/89/55 52/91/52
f 46/50/46 52/91/52 303/92/303
f 57/73/57 62/93/62 43/74/43
f 55/89/55 310/94/310 52/91/52
f 60/90/60 58/95/58 69/96/69
f 42/72/42 58/95/58 60/90/60
f 50/97/50 60/90/60 69/96/69
f 303/92/303 47/98/47 61/67/61
f 62/93/62 59/99/59 306/100/306
f 43/74/43 306/100/306 53/85/53
f 305/101/305 4/102/4 47/98/47
f 270/103/270 305/101/305 264/104/264
f 63/61/63 263/105/263 76/106/76
f 63/61/63 76/106/76 308/84/308
f 51/87/51 307/107/307 64/88/64
f 55/89/55 64/88/64 310/94/310
f 64/88/64 309/108/309 310/94/310
f 42/72/42 308/84/308 58/95/58
f 68/86/68 315/109/315 307/107/307
f 315/109/315 309/108/309 307/107/307
f 310/94/310 67/110/67 311/111/311
f 69/96/69 58/95/58 65/112/65
f 69/96/69 70/113/70 62/93/62
f 70/113/70 312/114/312 59/99/59
f 314/115/314 83/116/83 73/117/73
f 314/115/314 318/118/318 83/116/83
f 71/119/71 319/120/319 74/121/74
f 73/117/73 85/122/85 75/123/75
f 74/121/74 84/124/84 312/114/312
f 264/125/264 94/126/94 270/127/270
f 75/123/75 94/126/94 264/125/264
f 94/126/94 75/123/75 85/128/85
f 66/129/66 72/130/72 315/109/315
f 315/109/315 316/131/316 309/108/309
f 308/84/308 76/106/76 104/132/104
f 316/131/316 80/133/80 67/110/67
f 65/112/65 78/134/78 82/135/82
f 65/112/65 82/135/82 71/119/71
f 263/105/263 321/136/321 87/137/87
f 76/106/76 96/138/96 104/132/104
f 317/139/317 325/140/325 82/135/82
f 67/110/67 80/133/80 81/141/81
f 71/119/71 322/142/322 319/120/319
f 83/116/83 320/143/320 85/122/85
f 86/144/86 84/124/84 95/145/95
f 84/124/84 319/120/319 95/145/95
f 86/144/86 95/145/95 79/146/79
f 322/142/322 93/147/93 319/120/319
f 318/118/318 111/148/111 83/116/83
f 320/143/320 94/149/94 85/150/85
f 111/148/111 92/151/92 83/116/83
f 320/143/320 113/152/113 94/149/94
f 95/145/95 93/147/93 98/153/98
f 72/130/72 79/146/79 90/154/90
f 79/146/79 95/145/95 89/155/89
f 97/156/97 90/154/90 103/157/103
f 80/133/80 97/156/97 103/157/103
f 80/133/80 103/157/103 91/158/91
f 104/132/104 324/159/324 317/139/317
f 91/158/91 327/160/327 106/161/106
f 325/140/325 88/162/88 322/142/322
f 326/163/326 323/164/323 318/118/318
f 103/157/103 90/154/90 101/165/101
f 103/157/103 101/165/101 114/166/114
f 105/167/105 115/168/115 104/132/104
f 91/158/91 103/157/103 327/160/327
f 102/169/102 330/170/330 327/160/327
f 327/160/327 116/171/116 106/161/106
f 115/168/115 88/162/88 324/159/324
f 88/162/88 333/172/333 328/173/328
f 106/161/106 116/171/116 326/163/326
f 323/164/323 118/174/118 111/148/111
f 93/147/93 107/175/107 98/153/98
f 87/176/87 321/177/321 124/178/124
f 89/155/89 99/179/99 100/180/100
f 87/137/87 105/167/105 96/138/96
f 331/181/331 118/174/118 323/164/323
f 111/148/111 118/174/118 123/182/123
f 98/153/98 112/183/112 108/184/108
f 320/143/320 336/185/336 113/152/113
f 265/186/265 124/187/124 1/188/1
f 100/180/100 99/179/99 109/189/109
f 99/179/99 108/184/108 109/189/109
f 119/190/119 105/167/105 87/137/87
f 329/191/329 119/190/119 87/137/87
f 114/166/114 101/165/101 335/192/335
f 101/165/101 334/193/334 335/192/335
f 335/192/335 332/194/332 114/166/114
f 105/167/105 126/195/126 115/168/115
f 330/170/330 110/196/110 116/171/116
f 116/171/116 110/196/110 339/197/339
f 120/198/120 333/172/333 88/162/88
f 115/168/115 120/198/120 88/162/88
f 116/171/116 339/197/339 331/181/331
f 107/175/107 333/172/333 112/183/112
f 119/190/119 341/199/341 126/195/126
f 110/196/110 332/194/332 338/200/338
f 120/198/120 127/201/127 121/202/121
f 126/195/126 127/201/127 120/198/120
f 331/181/331 339/197/339 135/203/135
f 112/183/112 340/204/340 117/205/117
f 94/206/94 266/207/266 270/208/270
f 109/189/109 117/205/117 334/193/334
f 108/184/108 117/205/117 109/189/109
f 334/193/334 117/205/117 125/209/125
f 334/193/334 132/210/132 335/192/335
f 335/192/335 337/211/337 332/194/332
f 92/151/92 123/182/123 343/212/343
f 92/151/92 343/212/343 336/185/336
f 117/205/117 136/213/136 125/209/125
f 119/190/119 137/214/137 341/199/341
f 124/215/124 137/214/137 119/190/119
f 335/192/335 132/210/132 337/211/337
f 110/196/110 338/200/338 122/216/122
f 121/202/121 127/201/127 340/204/340
f 340/204/340 134/217/134 136/213/136
f 118/174/118 135/203/135 123/182/123
f 341/199/341 138/218/138 127/201/127
f 131/219/131 342/220/342 122/216/122
f 135/203/135 122/216/122 130/221/130
f 123/182/123 130/221/130 343/212/343
f 343/212/343 146/222/146 336/185/336
f 125/209/125 136/213/136 345/223/345
f 344/224/344 133/225/133 132/210/132
f 344/224/344 129/226/129 133/225/133
f 128/227/128 139/228/139 345/223/345
f 139/228/139 143/229/143 150/230/150
f 267/231/267 265/232/265 1/233/1
f 266/234/266 346/235/346 270/236/270
f 345/223/345 140/237/140 129/226/129
f 345/223/345 151/238/151 140/237/140
f 129/226/129 141/239/141 133/225/133
f 151/238/151 353/240/353 140/237/140
f 341/199/341 268/241/268 138/218/138
f 141/239/141 350/242/350 347/243/347
f 142/244/142 350/242/350 147/245/147
f 130/221/130 142/244/142 147/245/147
f 128/227/128 148/246/148 143/229/143
f 143/229/143 148/246/148 149/247/149
f 343/212/343 130/221/130 349/248/349
f 343/212/343 349/248/349 352/249/352
f 130/221/130 147/245/147 349/248/349
f 145/250/145 5/251/5 350/242/350
f 148/246/148 351/252/351 144/253/144
f 147/245/147 5/251/5 156/254/156
f 349/248/349 147/245/147 156/254/156
f 148/246/148 144/253/144 149/247/149
f 149/247/149 144/253/144 157/255/157
f 352/249/352 349/248/349 156/254/156
f 352/249/352 156/254/156 165/256/165
f 150/230/150 157/255/157 158/257/158
f 150/230/150 355/258/355 354/259/354
f 151/238/151 354/259/354 353/240/353
f 268/241/268 267/260/267 357/261/357
f 354/259/354 155/262/155 353/240/353
f 138/218/138 357/261/357 356/263/356
f 140/237/140 145/250/145 350/242/350
f 348/264/348 138/218/138 356/263/356
f 152/265/152 267/260/267 1/266/1
f 346/267/346 359/268/359 270/269/270
f 354/259/354 361/270/361 155/262/155
f 267/260/267 152/271/152 357/261/357
f 353/240/353 168/272/168 145/250/145
f 145/250/145 162/273/162 5/251/5
f 168/272/168 162/273/162 145/250/145
f 351/252/351 161/274/161 154/275/154
f 144/253/144 154/275/154 160/276/160
f 157/255/157 163/277/163 158/257/158
f 165/256/165 156/254/156 6/278/6
f 146/222/146 164/279/164 269/280/269
f 346/281/346 146/222/146 269/280/269
f 165/256/165 164/279/164 352/249/352
f 269/280/269 164/279/164 359/282/359
f 158/257/158 167/283/167 355/258/355
f 154/275/154 161/274/161 159/284/159
f 156/254/156 5/251/5 176/285/176
f 163/277/163 160/276/160 358/286/358
f 6/278/6 164/279/164 165/256/165
f 158/257/158 163/277/163 166/287/166
f 163/277/163 358/286/358 365/288/365
f 166/287/166 173/289/173 167/283/167
f 167/283/167 173/289/173 360/290/360
f 360/290/360 362/291/362 361/270/361
f 361/270/361 175/292/175 155/262/155
f 168/272/168 171/293/171 162/273/162
f 362/291/362 7/294/7 175/292/175
f 153/295/153 174/296/174 187/297/187
f 187/297/187 174/296/174 373/298/373
f 175/292/175 7/294/7 171/293/171
f 171/293/171 374/299/374 162/273/162
f 162/273/162 364/300/364 176/285/176
f 364/300/364 181/301/181 172/302/172
f 160/276/160 159/284/159 358/286/358
f 159/284/159 369/303/369 358/286/358
f 358/286/358 368/304/368 365/288/365
f 176/285/176 172/302/172 6/278/6
f 368/304/368 183/305/183 365/288/365
f 359/282/359 164/279/164 366/306/366
f 366/306/366 182/307/182 270/308/270
f 364/300/364 367/309/367 181/301/181
f 164/279/164 172/302/172 182/307/182
f 270/308/270 182/307/182 372/310/372
f 183/305/183 371/311/371 169/312/169
f 271/313/271 373/298/373 1/314/1
f 170/315/170 178/316/178 179/317/179
f 7/294/7 184/318/184 180/319/180
f 171/293/171 375/320/375 189/321/189
f 363/322/363 187/297/187 190/323/190
f 363/322/363 190/323/190 177/324/177
f 180/319/180 179/317/179 186/325/186
f 187/297/187 380/326/380 192/327/192
f 190/323/190 192/327/192 201/328/201
f 189/321/189 188/329/188 191/330/191
f 189/321/189 191/330/191 367/309/367
f 177/324/177 190/323/190 185/331/185
f 190/323/190 201/328/201 193/332/193
f 181/301/181 197/333/197 182/307/182
f 377/334/377 196/335/196 378/336/378
f 270/337/270 379/338/379 275/339/275
f 179/317/179 378/336/378 186/325/186
f 378/336/378 381/340/381 186/325/186
f 195/341/195 185/331/185 203/342/203
f 196/335/196 389/343/389 383/344/383
f 1/345/1 272/346/272 271/347/271
f 378/336/378 383/344/383 381/340/381
f 271/348/271 272/346/272 380/326/380
f 382/349/382 385/350/385 188/329/188
f 191/330/191 386/351/386 197/333/197
f 197/333/197 194/352/194 202/353/202
f 197/333/197 386/351/386 194/352/194
f 383/354/383 384/355/384 381/356/381
f 192/357/192 8/358/8 198/359/198
f 385/360/385 210/361/210 386/362/386
f 185/363/185 193/364/193 199/365/199
f 193/364/193 9/366/9 199/365/199
f 202/367/202 194/368/194 207/369/207
f 202/367/202 207/369/207 387/370/387
f 387/370/387 12/371/12 379/372/379
f 388/373/388 209/374/209 389/375/389
f 203/376/203 209/374/209 388/373/388
f 203/376/203 200/377/200 209/374/209
f 209/374/209 215/378/215 208/379/208
f 208/379/208 10/380/10 384/355/384
f 209/374/209 208/379/208 389/375/389
f 380/381/380 216/382/216 8/358/8
f 201/383/201 198/359/198 9/366/9
f 194/368/194 210/361/210 211/384/211
f 211/384/211 392/385/392 207/369/207
f 199/365/199 204/386/204 200/377/200
f 206/387/206 221/388/221 222/389/222
f 9/366/9 391/390/391 223/391/223
f 214/392/214 206/387/206 222/389/222
f 392/385/392 395/393/395 224/394/224
f 200/377/200 204/386/204 393/395/393
f 224/394/224 231/396/231 390/397/390
f 393/395/393 217/398/217 205/399/205
f 390/397/390 231/396/231 12/371/12
f 215/378/215 212/400/212 213/401/213
f 208/379/208 213/401/213 10/380/10
f 215/378/215 213/401/213 208/379/208
f 10/380/10 220/402/220 221/388/221
f 9/366/9 198/359/198 391/390/391
f 215/378/215 217/398/217 212/400/212
f 212/400/212 217/398/217 398/403/398
f 273/404/273 399/405/399 216/382/216
f 213/401/213 212/400/212 398/403/398
f 220/402/220 398/403/398 218/406/218
f 216/382/216 394/407/394 198/359/198
f 221/388/221 220/402/220 400/408/400
f 394/407/394 409/409/409 391/390/391
f 221/388/221 400/408/400 233/410/233
f 222/389/222 233/410/233 219/411/219
f 391/390/391 228/412/228 223/391/223
f 395/393/395 222/389/222 229/413/229
f 392/385/392 222/389/222 395/393/395
f 223/391/223 11/414/11 204/386/204
f 395/393/395 230/415/230 224/394/224
f 11/414/11 397/416/397 393/395/393
f 11/414/11 396/417/396 397/416/397
f 228/412/228 403/418/403 396/417/396
f 229/413/229 402/419/402 395/393/395
f 397/416/397 232/420/232 217/398/217
f 398/403/398 236/421/236 218/406/218
f 400/408/400 218/406/218 227/422/227
f 226/423/226 247/424/247 248/425/248
f 274/426/274 1/427/1 278/428/278
f 12/429/12 258/430/258 275/431/275
f 218/406/218 236/421/236 13/432/13
f 13/432/13 407/433/407 401/434/401
f 237/435/237 254/436/254 394/407/394
f 219/411/219 401/434/401 238/437/238
f 409/409/409 404/438/404 403/418/403
f 238/437/238 244/439/244 402/419/402
f 403/418/403 245/440/245 396/417/396
f 226/423/226 225/441/225 247/424/247
f 231/396/231 240/442/240 246/443/246
f 235/444/235 234/445/234 242/446/242
f 234/445/234 255/447/255 242/446/242
f 234/445/234 244/439/244 255/447/255
f 245/440/245 405/448/405 239/449/239
f 240/442/240 243/450/243 285/41/285
f 239/449/239 406/451/406 247/424/247
f 247/424/247 277/452/277 241/453/241
f 259/454/259 274/455/274 278/456/278
f 275/457/275 294/458/294 270/459/270
f 275/457/275 258/460/258 294/458/294
f 249/461/249 259/462/259 237/435/237
f 274/455/274 259/462/259 249/461/249
f 237/435/237 17/12/17 254/436/254
f 408/463/408 244/439/244 238/437/238
f 407/433/407 276/15/276 408/463/408
f 252/9/252 258/464/258 246/443/246
f 279/465/279 280/10/280 253/466/253
f 241/453/241 253/466/253 250/467/250
f 250/467/250 253/466/253 407/433/407
f 276/15/276 251/21/251 255/447/255
f 254/436/254 283/23/283 404/438/404
f 405/448/405 283/23/283 256/22/256
f 404/438/404 283/23/283 405/448/405
f 243/450/243 251/21/251 15/42/15
f 406/451/406 261/26/261 277/452/277
f 406/451/406 405/448/405 261/26/261
f 277/452/277 286/27/286 16/1/16
f 277/452/277 16/1/16 279/465/279
f 279/465/279 16/1/16 24/3/24
f 280/10/280 279/465/279 24/3/24
f 259/462/259 278/5/278 17/12/17
f 280/10/280 281/11/281 260/13/260
f 17/12/17 18/17/18 282/16/282
f 283/23/283 282/16/282 26/18/26
f 257/19/257 284/14/284 2/20/2
f 251/21/251 288/25/288 15/42/15
f 286/27/286 25/24/25 30/28/30
f 23/2/23 286/27/286 290/29/290
f 20/31/20 24/3/24 292/30/292
f 281/11/281 20/31/20 21/35/21
f 17/12/17 14/4/14 18/17/18
f 14/4/14 32/34/32 18/17/18
f 260/13/260 21/35/21 284/14/284
f 26/18/26 18/17/18 32/34/32
f 284/14/284 29/36/29 22/37/22
f 25/24/25 283/23/283 19/38/19
f 19/38/19 283/23/283 26/18/26
f 2/20/2 22/37/22 288/25/288
f 30/28/30 25/24/25 3/39/3
f 252/9/252 285/41/285 289/43/289
f 29/36/29 21/35/21 28/45/28
f 40/40/40 22/37/22 29/36/29
f 19/38/19 41/47/41 3/39/3
f 289/43/289 46/50/46 36/68/36
f 252/9/252 289/43/289 36/68/36
f 290/29/290 291/51/291 292/30/292
f 292/30/292 291/51/291 31/52/31
f 32/34/32 287/33/287 293/57/293
f 21/35/21 20/31/20 27/44/27
f 317/139/317 78/134/78 58/95/58 77/468/77
f 291/51/291 48/75/48 301/55/301
f 38/54/38 31/52/31 37/53/37
f 37/53/37 301/55/301 54/60/54
f 34/62/34 38/54/38 54/60/54
f 35/64/35 28/45/28 34/62/34
f 295/46/295 32/34/32 39/63/39
f 40/40/40 29/36/29 35/64/35
f 26/18/26 295/46/295 41/47/41
f 3/39/3 296/66/296 297/49/297
f 41/47/41 33/65/33 296/66/296
f 297/49/297 48/75/48 291/51/291
f 297/49/297 296/66/296 48/75/48
f 33/65/33 39/63/39 42/72/42
f 42/72/42 39/63/39 308/84/308
f 296/66/296 299/71/299 57/73/57
f 33/65/33 299/71/299 296/66/296
f 299/71/299 56/70/56 57/73/57
f 46/50/46 303/92/303 61/67/61
f 48/75/48 43/74/43 300/77/300
f 49/76/49 61/67/61 47/98/47
f 301/55/301 300/77/300 302/81/302
f 304/469/304 262/80/262 124/79/124
f 294/470/294 49/76/49 270/471/270
f 300/77/300 43/74/43 53/85/53
f 49/472/49 4/473/4 270/474/270
f 302/81/302 53/85/53 51/87/51
f 54/60/54 302/81/302 51/87/51
f 63/61/63 304/82/304 263/105/263
f 298/48/298 45/69/45 55/89/55
f 57/73/57 56/70/56 50/97/50
f 50/97/50 56/70/56 60/90/60
f 57/73/57 50/97/50 62/93/62
f 4/473/4 49/76/49 47/98/47
f 62/93/62 50/97/50 69/96/69
f 303/92/303 73/117/73 47/98/47
f 53/85/53 306/100/306 68/86/68
f 43/74/43 62/93/62 306/100/306
f 263/475/263 304/82/304 124/476/124
f 4/477/4 305/101/305 270/103/270
f 47/98/47 264/104/264 305/101/305
f 306/100/306 66/129/66 68/86/68
f 51/87/51 68/86/68 307/107/307
f 64/88/64 307/107/307 309/108/309
f 58/95/58 308/84/308 77/468/77
f 68/86/68 66/129/66 315/109/315
f 309/108/309 67/110/67 310/94/310
f 348/264/348 128/227/128 136/213/136 134/217/134
f 52/91/52 310/94/310 311/111/311
f 65/112/65 58/95/58 78/134/78
f 303/92/303 52/91/52 311/111/311
f 70/113/70 69/96/69 65/112/65
f 303/92/303 314/115/314 73/117/73
f 303/92/303 311/111/311 314/115/314
f 62/93/62 70/113/70 59/99/59
f 73/117/73 75/123/75 264/478/264
f 47/98/47 73/117/73 264/478/264
f 306/100/306 59/99/59 66/129/66
f 59/99/59 312/114/312 66/129/66
f 70/113/70 74/121/74 312/114/312
f 311/111/311 313/479/313 314/115/314
f 311/111/311 81/141/81 313/479/313
f 70/113/70 65/112/65 71/119/71
f 314/115/314 313/479/313 318/118/318
f 70/113/70 71/119/71 74/121/74
f 312/114/312 84/124/84 86/144/86
f 312/114/312 72/130/72 66/129/66
f 312/114/312 86/144/86 72/130/72
f 76/106/76 263/105/263 87/137/87
f 315/109/315 72/130/72 316/131/316
f 77/468/77 308/84/308 104/132/104
f 309/108/309 316/131/316 67/110/67
f 317/139/317 77/468/77 104/132/104
f 311/111/311 67/110/67 81/141/81
f 78/134/78 317/139/317 82/135/82
f 96/138/96 76/106/76 87/137/87
f 316/131/316 72/130/72 90/154/90
f 80/133/80 316/131/316 97/156/97
f 82/135/82 325/140/325 322/142/322
f 313/479/313 326/163/326 318/118/318
f 313/479/313 81/141/81 326/163/326
f 81/141/81 106/161/106 326/163/326
f 82/135/82 322/142/322 71/119/71
f 74/121/74 319/120/319 84/124/84
f 73/117/73 83/116/83 85/122/85
f 124/480/124 321/136/321 263/481/263
f 72/130/72 86/144/86 79/146/79
f 322/142/322 328/173/328 93/147/93
f 322/142/322 88/162/88 328/173/328
f 93/147/93 328/173/328 107/175/107
f 318/118/318 323/164/323 111/148/111
f 83/116/83 92/151/92 320/143/320
f 89/155/89 95/145/95 98/153/98
f 95/145/95 319/120/319 93/147/93
f 90/154/90 79/146/79 89/155/89
f 97/156/97 316/131/316 90/154/90
f 96/138/96 105/167/105 104/132/104
f 317/139/317 324/159/324 325/140/325
f 81/141/81 80/133/80 91/158/91
f 81/141/81 91/158/91 106/161/106
f 325/140/325 324/159/324 88/162/88
f 101/165/101 90/154/90 100/180/100
f 327/160/327 103/157/103 102/169/102
f 102/169/102 103/157/103 114/166/114
f 104/132/104 115/168/115 324/159/324
f 327/160/327 330/170/330 116/171/116
f 326/163/326 116/171/116 323/164/323
f 328/173/328 333/172/333 107/175/107
f 89/155/89 98/153/98 99/179/99
f 266/482/266 94/483/94 113/152/113
f 90/154/90 89/155/89 100/180/100
f 98/153/98 107/175/107 112/183/112
f 111/148/111 123/182/123 92/151/92
f 99/179/99 98/153/98 108/184/108
f 124/187/124 329/191/329 87/484/87
f 119/485/119 329/191/329 124/187/124
f 101/165/101 100/180/100 109/189/109
f 101/165/101 109/189/109 334/193/334
f 330/170/330 102/169/102 114/166/114
f 114/166/114 332/194/332 330/170/330
f 115/168/115 126/195/126 120/198/120
f 116/171/116 331/181/331 323/164/323
f 112/183/112 333/172/333 121/202/121
f 105/167/105 119/190/119 126/195/126
f 110/196/110 330/170/330 332/194/332
f 333/172/333 120/198/120 121/202/121
f 112/183/112 121/202/121 340/204/340
f 118/174/118 331/181/331 135/203/135
f 336/185/336 320/143/320 92/151/92
f 108/184/108 112/183/112 117/205/117
f 113/486/113 336/185/336 266/207/266
f 334/193/334 125/209/125 132/210/132
f 117/205/117 340/204/340 136/213/136
f 137/214/137 124/215/124 265/487/265
f 125/209/125 344/224/344 132/210/132
f 337/211/337 131/219/131 338/200/338
f 337/211/337 132/210/132 131/219/131
f 332/194/332 337/211/337 338/200/338
f 126/195/126 341/199/341 127/201/127
f 122/216/122 338/200/338 131/219/131
f 135/203/135 339/197/339 122/216/122
f 339/197/339 110/196/110 122/216/122
f 340/204/340 127/201/127 134/217/134
f 131/219/131 133/225/133 347/243/347
f 131/219/131 347/243/347 342/220/342
f 134/217/134 127/201/127 138/218/138
f 134/217/134 138/218/138 348/264/348
f 130/221/130 122/216/122 342/220/342
f 130/221/130 342/220/342 142/244/142
f 273/404/273 216/382/216 380/381/380 272/488/272
f 123/182/123 135/203/135 130/221/130
f 266/489/266 336/185/336 146/222/146
f 345/223/345 136/213/136 128/227/128
f 125/209/125 345/223/345 344/224/344
f 137/214/137 265/490/265 268/241/268
f 137/214/137 268/241/268 341/199/341
f 344/224/344 345/223/345 129/226/129
f 132/210/132 133/225/133 131/219/131
f 343/212/343 352/249/352 146/222/146
f 139/228/139 128/227/128 143/229/143
f 146/222/146 346/491/346 266/234/266
f 345/223/345 139/228/139 151/238/151
f 129/226/129 140/237/140 141/239/141
f 133/225/133 141/239/141 347/243/347
f 141/239/141 140/237/140 350/242/350
f 347/243/347 350/242/350 142/244/142
f 342/220/342 347/243/347 142/244/142
f 148/246/148 348/264/348 351/252/351
f 128/227/128 348/264/348 148/246/148
f 147/245/147 350/242/350 5/251/5
f 144/253/144 351/252/351 154/275/154
f 150/230/150 143/229/143 149/247/149
f 150/230/150 149/247/149 157/255/157
f 139/228/139 150/230/150 151/238/151
f 150/230/150 158/257/158 355/258/355
f 268/241/268 265/492/265 267/493/267
f 151/238/151 150/230/150 354/259/354
f 138/218/138 268/241/268 357/261/357
f 140/237/140 353/240/353 145/250/145
f 348/264/348 356/263/356 351/252/351
f 346/267/346 269/280/269 359/268/359
f 354/259/354 355/258/355 361/270/361
f 355/258/355 360/290/360 361/270/361
f 357/261/357 153/295/153 356/263/356
f 353/240/353 155/262/155 168/272/168
f 155/262/155 175/292/175 168/272/168
f 351/252/351 356/263/356 153/295/153
f 161/274/161 351/252/351 153/295/153
f 157/255/157 144/253/144 163/277/163
f 163/277/163 144/253/144 160/276/160
f 352/249/352 164/279/164 146/222/146
f 160/276/160 154/275/154 159/284/159
f 156/254/156 176/285/176 6/278/6
f 5/251/5 162/273/162 176/285/176
f 166/287/166 163/277/163 365/288/365
f 36/68/36 49/494/49 294/495/294 252/9/252
f 167/283/167 158/257/158 166/287/166
f 174/496/174 152/271/152 1/497/1
f 355/258/355 167/283/167 360/290/360
f 360/290/360 173/289/173 362/291/362
f 153/295/153 357/261/357 152/271/152
f 153/295/153 152/271/152 174/296/174
f 361/270/361 362/291/362 175/292/175
f 168/272/168 175/292/175 171/293/171
f 161/274/161 153/295/153 363/322/363
f 362/291/362 173/289/173 169/312/169
f 170/315/170 362/291/362 169/312/169
f 7/294/7 362/291/362 170/315/170
f 7/294/7 170/315/170 184/318/184
f 171/293/171 7/294/7 180/319/180
f 363/322/363 153/295/153 187/297/187
f 161/274/161 363/322/363 159/284/159
f 162/273/162 374/299/374 364/300/364
f 374/299/374 367/309/367 364/300/364
f 176/285/176 364/300/364 172/302/172
f 358/286/358 369/303/369 368/304/368
f 164/279/164 6/278/6 172/302/172
f 173/289/173 166/287/166 365/288/365
f 365/288/365 183/305/183 173/289/173
f 366/306/366 164/279/164 182/307/182
f 169/312/169 173/289/173 183/305/183
f 373/498/373 174/296/174 1/499/1
f 359/500/359 366/306/366 270/501/270
f 369/303/369 177/324/177 376/502/376
f 369/303/369 376/502/376 370/503/370
f 368/304/368 369/303/369 370/503/370
f 182/307/182 172/302/172 181/301/181
f 368/304/368 370/503/370 183/305/183
f 183/305/183 370/503/370 371/311/371
f 178/316/178 169/312/169 371/311/371
f 170/315/170 169/312/169 178/316/178
f 184/318/184 170/315/170 179/317/179
f 180/319/180 184/318/184 179/317/179
f 187/297/187 373/298/373 380/326/380
f 171/293/171 180/319/180 375/320/375
f 190/323/190 187/297/187 192/327/192
f 367/309/367 374/299/374 189/321/189
f 374/299/374 171/293/171 189/321/189
f 159/284/159 177/324/177 369/303/369
f 159/284/159 363/322/363 177/324/177
f 373/298/373 271/348/271 380/326/380
f 186/325/186 381/340/381 382/349/382
f 375/320/375 180/319/180 186/325/186
f 189/321/189 375/320/375 188/329/188
f 186/325/186 382/349/382 375/320/375
f 375/320/375 382/349/382 188/329/188
f 185/331/185 190/323/190 193/332/193
f 181/301/181 367/309/367 191/330/191
f 197/333/197 181/301/181 191/330/191
f 376/502/376 177/324/177 185/331/185
f 376/502/376 185/331/185 195/341/195
f 387/504/387 182/307/182 197/333/197
f 370/503/370 376/502/376 371/311/371
f 371/311/371 376/502/376 377/334/377
f 377/334/377 195/341/195 196/335/196
f 377/334/377 376/502/376 195/341/195
f 372/310/372 387/504/387 379/338/379
f 372/310/372 182/307/182 387/504/387
f 378/336/378 371/311/371 377/334/377
f 178/316/178 371/311/371 378/336/378
f 372/310/372 379/338/379 270/337/270
f 179/317/179 178/316/178 378/336/378
f 387/504/387 197/333/197 202/353/202
f 196/335/196 195/341/195 203/342/203
f 196/335/196 388/505/388 389/343/389
f 196/335/196 203/342/203 388/505/388
f 378/336/378 196/335/196 383/344/383
f 382/349/382 381/340/381 385/350/385
f 192/327/192 380/326/380 8/506/8
f 188/329/188 385/350/385 386/351/386
f 188/329/188 386/351/386 191/330/191
f 381/356/381 384/355/384 385/360/385
f 201/383/201 192/357/192 198/359/198
f 194/368/194 386/362/386 210/361/210
f 193/364/193 201/383/201 9/366/9
f 203/376/203 185/363/185 199/365/199
f 203/376/203 199/365/199 200/377/200
f 387/370/387 207/369/207 390/397/390
f 387/370/387 390/397/390 12/371/12
f 273/507/273 272/488/272 1/508/1
f 379/372/379 12/371/12 275/509/275
f 383/354/383 389/375/389 384/355/384
f 207/369/207 224/394/224 390/397/390
f 209/374/209 200/377/200 205/399/205
f 389/375/389 208/379/208 384/355/384
f 235/444/235 230/415/230 395/393/395 234/445/234
f 384/355/384 10/380/10 385/360/385
f 385/360/385 206/387/206 210/361/210
f 385/360/385 10/380/10 206/387/206
f 210/361/210 206/387/206 214/392/214
f 211/384/211 210/361/210 214/392/214
f 199/365/199 9/366/9 204/386/204
f 204/386/204 9/366/9 223/391/223
f 207/369/207 194/368/194 211/384/211
f 207/369/207 392/385/392 224/394/224
f 206/387/206 10/380/10 221/388/221
f 211/384/211 214/392/214 222/389/222
f 392/385/392 211/384/211 222/389/222
f 205/399/205 200/377/200 393/395/393
f 205/399/205 217/398/217 215/378/215
f 209/374/209 205/399/205 215/378/215
f 10/380/10 213/401/213 220/402/220
f 198/359/198 8/358/8 216/382/216
f 1/510/1 399/405/399 273/511/273
f 220/402/220 213/401/213 398/403/398
f 216/382/216 237/435/237 394/407/394
f 400/408/400 220/402/220 218/406/218
f 198/359/198 394/407/394 391/390/391
f 222/389/222 221/388/221 233/410/233
f 391/390/391 409/409/409 228/412/228
f 223/391/223 228/412/228 11/414/11
f 204/386/204 11/414/11 393/395/393
f 224/394/224 230/415/230 231/396/231
f 393/395/393 397/416/397 217/398/217
f 228/412/228 409/409/409 403/418/403
f 229/413/229 219/411/219 402/419/402
f 229/413/229 222/389/222 219/411/219
f 11/414/11 228/412/228 396/417/396
f 237/435/237 216/382/216 399/405/399 249/461/249
f 395/393/395 402/419/402 234/445/234
f 397/416/397 396/417/396 232/420/232
f 396/417/396 239/449/239 232/420/232
f 230/415/230 240/442/240 231/396/231
f 230/415/230 235/444/235 240/442/240
f 217/398/217 232/420/232 398/403/398
f 226/423/226 232/420/232 225/441/225
f 12/371/12 231/396/231 246/443/246
f 236/421/236 398/403/398 226/423/226
f 398/403/398 232/420/232 226/423/226
f 399/405/399 274/426/274 249/461/249
f 233/410/233 400/408/400 401/434/401
f 401/434/401 400/408/400 227/422/227
f 219/411/219 233/410/233 401/434/401
f 236/421/236 226/423/226 248/425/248
f 1/427/1 274/426/274 399/512/399
f 12/513/12 246/443/246 258/430/258
f 13/432/13 236/421/236 248/425/248
f 227/422/227 218/406/218 13/432/13
f 227/422/227 13/432/13 401/434/401
f 401/434/401 407/433/407 408/463/408
f 394/407/394 254/436/254 409/409/409
f 401/434/401 408/463/408 238/437/238
f 402/419/402 219/411/219 238/437/238
f 234/445/234 402/419/402 244/439/244
f 403/418/403 404/438/404 245/440/245
f 396/417/396 245/440/245 239/449/239
f 240/442/240 235/444/235 243/450/243
f 232/420/232 239/449/239 225/441/225
f 225/441/225 239/449/239 247/424/247
f 243/450/243 235/444/235 242/446/242
f 245/440/245 404/438/404 405/448/405
f 239/449/239 405/448/405 406/451/406
f 246/443/246 240/442/240 285/41/285
f 247/424/247 406/451/406 277/452/277
f 248/425/248 247/424/247 241/453/241
f 250/467/250 248/425/248 241/453/241
f 13/432/13 250/467/250 407/433/407
f 248/425/248 250/467/250 13/432/13
f 408/463/408 276/15/276 244/439/244
f 407/433/407 253/466/253 276/15/276
f 409/409/409 254/436/254 404/438/404
f 253/466/253 241/453/241 279/465/279
f 237/435/237 259/462/259 17/12/17
f 253/466/253 280/10/280 276/15/276
f 254/436/254 17/12/17 282/16/282
f 254/436/254 282/16/282 283/23/283
f 244/439/244 276/15/276 255/447/255
f 276/15/276 257/19/257 251/21/251
f 243/450/243 242/446/242 251/21/251
f 242/446/242 255/447/255 251/21/251
f 261/26/261 405/448/405 256/22/256
f 261/26/261 256/22/256 25/24/25
f 285/41/285 243/450/243 15/42/15
f 277/452/277 261/26/261 286/27/286
f 246/443/246 285/41/285 252/9/252
f 241/453/241 277/452/277 279/465/279
